<svg width="40" height="27" viewBox="0 0 40 27" fill="none" xmlns="http://www.w3.org/2000/svg">
<g clip-path="url(#clip0_1_635)">
<g clip-path="url(#clip1_1_635)">
<path d="M2.00634 8.55846C1.56098 8.23187 0.93518 8.32814 0.608579 8.77351C0.281978 9.21887 0.378255 9.84467 0.82362 10.1713L2.00634 8.55846ZM38.9098 9.46638C38.9659 8.91695 38.5659 8.4261 38.0165 8.37004L29.063 7.45641C28.5136 7.40035 28.0227 7.8003 27.9667 8.34974C27.9106 8.89916 28.3105 9.39002 28.86 9.44608L36.8187 10.2582L36.0065 18.2169C35.9505 18.7663 36.3504 19.2572 36.8999 19.3132C37.4493 19.3693 37.9401 18.9694 37.9962 18.4199L38.9098 9.46638ZM2.48125 11.323C2.94289 11.6261 3.56288 11.4977 3.86605 11.036C4.16921 10.5744 4.04075 9.95438 3.57911 9.65122L2.48125 11.323ZM6.87599 11.5625C6.3829 11.3137 5.78152 11.5118 5.53276 12.0049C5.284 12.498 5.48207 13.0994 5.97516 13.3481L6.87599 11.5625ZM9.6945 14.9414C10.2151 15.1257 10.7866 14.8531 10.9709 14.3325C11.1553 13.8119 10.8826 13.2404 10.362 13.0561L9.6945 14.9414ZM14.0071 14.0745C13.4662 13.9629 12.9373 14.311 12.8257 14.852C12.7142 15.3929 13.0623 15.9218 13.6032 16.0333L14.0071 14.0745ZM17.6329 16.571C18.1842 16.6052 18.6587 16.186 18.6928 15.6347C18.7269 15.0835 18.3077 14.609 17.7565 14.5749L17.6329 16.571ZM21.5357 14.5434C20.985 14.5863 20.5734 15.0673 20.6163 15.618C20.6591 16.1686 21.1402 16.5802 21.6908 16.5374L21.5357 14.5434ZM25.7018 15.9528C26.2419 15.8375 26.5863 15.3061 26.4709 14.766C26.3555 14.2259 25.8242 13.8816 25.2841 13.9969L25.7018 15.9528ZM28.9403 12.9725C28.4186 13.1538 28.1426 13.7237 28.3239 14.2453C28.5052 14.767 29.0751 15.043 29.5968 14.8617L28.9403 12.9725ZM33.3351 13.3096C33.8319 13.0685 34.0392 12.4702 33.798 11.9733C33.5568 11.4765 32.9585 11.2692 32.4617 11.5104L33.3351 13.3096ZM35.7763 9.65109C35.3124 9.95085 35.1794 10.5699 35.4792 11.0337C35.7789 11.4976 36.398 11.6306 36.8618 11.3309L35.7763 9.65109ZM0.82362 10.1713C1.37735 10.5773 1.93 10.9609 2.48125 11.323L3.57911 9.65122C3.05705 9.30837 2.53268 8.94444 2.00634 8.55846L0.82362 10.1713ZM5.97516 13.3481C7.22873 13.9805 8.46997 14.5078 9.6945 14.9414L10.362 13.0561C9.21784 12.651 8.05451 12.157 6.87599 11.5625L5.97516 13.3481ZM13.6032 16.0333C14.9801 16.3171 16.3258 16.4901 17.6329 16.571L17.7565 14.5749C16.5405 14.4996 15.2887 14.3387 14.0071 14.0745L13.6032 16.0333ZM21.6908 16.5374C23.0937 16.4282 24.4343 16.2236 25.7018 15.9528L25.2841 13.9969C24.0968 14.2505 22.844 14.4416 21.5357 14.5434L21.6908 16.5374ZM29.5968 14.8617C30.9832 14.3799 32.2363 13.843 33.3351 13.3096L32.4617 11.5104C31.4255 12.0134 30.2449 12.5191 28.9403 12.9725L29.5968 14.8617ZM36.8618 11.3309C37.3968 10.9851 37.8121 10.6922 38.0965 10.4835C38.2387 10.3791 38.3483 10.2957 38.4237 10.2372C38.4615 10.2079 38.4907 10.1849 38.5113 10.1685C38.5215 10.1604 38.5296 10.1539 38.5355 10.1491C38.5385 10.1467 38.5409 10.1448 38.5428 10.1433C38.5437 10.1425 38.5445 10.1419 38.5451 10.1414C38.5455 10.1411 38.5457 10.1409 38.546 10.1407C38.5461 10.1406 38.5467 10.1401 37.915 9.36487C37.2833 8.58964 37.2834 8.58958 37.2835 8.58953C37.2831 8.5898 37.2827 8.5901 37.2813 8.59124C37.2785 8.59351 37.2735 8.59751 37.2664 8.60317C37.2522 8.61448 37.2294 8.63243 37.1983 8.65654C37.1361 8.70477 37.0406 8.77761 36.913 8.87122C36.6579 9.0585 36.2752 9.32865 35.7763 9.65109L36.8618 11.3309Z" fill="#B8B9BA"/>
</g>
</g>
<defs>
<clipPath id="clip0_1_635">
<rect width="39" height="26" fill="white" transform="translate(0.414978 0.36499)"/>
</clipPath>
<clipPath id="clip1_1_635">
<rect width="39" height="12" fill="white" transform="translate(0.414978 7.36499)"/>
</clipPath>
</defs>
</svg>
