<svg width="75" height="73" viewBox="0 0 75 73" fill="none" xmlns="http://www.w3.org/2000/svg">
<g clip-path="url(#clip0_1_650)">
<path d="M52.605 12.7502H5.55549C3.39036 12.7502 1.61435 14.549 1.60498 16.7404V20.6929H48.105M36.605 38.5898H29.5396C28.8152 38.5898 28.2232 39.1803 28.2232 39.9137C28.2232 40.6471 28.8152 41.2465 29.5396 41.2465H34.605M43.605 27.2502H1.61278V55.7601C1.61278 57.952 3.38017 59.7502 5.55399 59.7502H23.105M32.605 44.9263H29.5396C28.8152 44.9263 28.2232 45.5168 28.2232 46.2502C28.2232 46.9836 28.8152 47.583 29.5396 47.583H30.605M9.86729 35.5566H19.7122C20.525 35.5566 21.2676 35.8963 21.8064 36.4335C22.3457 36.9795 22.6725 37.7218 22.6725 38.5537V47.2502C22.6725 48.0731 22.3369 48.8249 21.8064 49.3704C21.267 49.9165 20.5338 50.2473 19.7122 50.2473H9.86729C9.05445 50.2473 8.31189 49.9075 7.77308 49.3704C7.23372 48.8338 6.90696 48.082 6.90696 47.2502V38.5537C6.90696 37.7308 7.24252 36.979 7.77308 36.4335C8.31186 35.8874 9.04564 35.5566 9.86729 35.5566Z" stroke="#B5179E" stroke-width="1.5" stroke-linejoin="round"/>
<path d="M58.605 13.0837H69.6548C71.8286 13.0837 73.596 14.882 73.596 17.0739V21.0264H53.605M40.605 41.58H44.8753C45.5998 41.58 46.183 40.9806 46.183 40.2472C46.183 39.5138 45.5997 38.9233 44.8753 38.9233H42.105M36.605 47.5386H58.2101C58.9346 47.5386 59.5266 46.9481 59.5266 46.2147C59.5266 45.4813 58.9346 44.8819 58.2101 44.8819H38.605M29.105 60.0831H69.6638C71.8288 60.0831 73.605 58.2938 73.605 56.093V27.2502H49.605" stroke="#B5179E" stroke-width="1.5" stroke-linejoin="round"/>
<path d="M56.0635 7.98413L19.2392 66.3174" stroke="#B5179E" stroke-width="1.5" stroke-linejoin="round"/>
</g>
<defs>
<clipPath id="clip0_1_650">
<rect width="74" height="72" fill="white" transform="translate(0.60498 0.360107)"/>
</clipPath>
</defs>
</svg>
