<svg width="40" height="27" viewBox="0 0 40 27" fill="none" xmlns="http://www.w3.org/2000/svg">
<g clip-path="url(#clip0_1_662)">
<g clip-path="url(#clip1_1_662)">
<path d="M2.17627 18.1723C1.73091 18.4988 1.1051 18.4026 0.778501 17.9572C0.4519 17.5118 0.548177 16.886 0.993542 16.5594L2.17627 18.1723ZM39.0797 17.2643C39.1358 17.8138 38.7358 18.3046 38.1864 18.3607L29.2329 19.2743C28.6835 19.3304 28.1926 18.9304 28.1366 18.381C28.0805 17.8316 28.4804 17.3407 29.0299 17.2846L36.9886 16.4725L36.1764 8.51384C36.1204 7.96444 36.5203 7.47354 37.0698 7.41754C37.6192 7.36144 38.11 7.76134 38.1661 8.31084L39.0797 17.2643ZM2.65118 15.4078C3.11282 15.1046 3.73281 15.2331 4.03598 15.6947C4.33914 16.1563 4.21068 16.7763 3.74904 17.0795L2.65118 15.4078ZM7.04592 15.1682C6.55283 15.417 5.95145 15.2189 5.70269 14.7258C5.45393 14.2328 5.652 13.6314 6.14509 13.3826L7.04592 15.1682ZM9.86443 11.7893C10.385 11.605 10.9565 11.8776 11.1408 12.3982C11.3252 12.9189 11.0525 13.4903 10.5319 13.6746L9.86443 11.7893ZM14.177 12.6563C13.6361 12.7678 13.1072 12.4197 12.9956 11.8788C12.8841 11.3379 13.2322 10.809 13.7731 10.6974L14.177 12.6563ZM17.8028 10.1597C18.3541 10.1256 18.8286 10.5448 18.8627 11.096C18.8968 11.6472 18.4776 12.1217 17.9264 12.1559L17.8028 10.1597ZM21.7056 12.1873C21.1549 12.1445 20.7433 11.6634 20.7862 11.1128C20.829 10.5621 21.3101 10.1505 21.8607 10.1933L21.7056 12.1873ZM25.8717 10.7779C26.4118 10.8933 26.7562 11.4246 26.6408 11.9647C26.5254 12.5048 25.9941 12.8491 25.454 12.7338L25.8717 10.7779ZM29.1102 13.7582C28.5885 13.5769 28.3125 13.0071 28.4938 12.4854C28.6751 11.9637 29.245 11.6878 29.7667 11.869L29.1102 13.7582ZM33.505 13.4211C34.0018 13.6623 34.2091 14.2605 33.9679 14.7574C33.7267 15.2542 33.1284 15.4615 32.6316 15.2203L33.505 13.4211ZM35.9462 17.0796C35.4823 16.7799 35.3493 16.1608 35.6491 15.697C35.9488 15.2331 36.5679 15.1001 37.0317 15.3999L35.9462 17.0796ZM0.993542 16.5594C1.54727 16.1534 2.09993 15.7698 2.65118 15.4078L3.74904 17.0795C3.22698 17.4223 2.70261 17.7863 2.17627 18.1723L0.993542 16.5594ZM6.14509 13.3826C7.39866 12.7502 8.6399 12.2229 9.86443 11.7893L10.5319 13.6746C9.38777 14.0797 8.22444 14.5737 7.04592 15.1682L6.14509 13.3826ZM13.7731 10.6974C15.15 10.4136 16.4957 10.2406 17.8028 10.1597L17.9264 12.1559C16.7104 12.2311 15.4586 12.392 14.177 12.6563L13.7731 10.6974ZM21.8607 10.1933C23.2636 10.3025 24.6042 10.5071 25.8717 10.7779L25.454 12.7338C24.2667 12.4802 23.0139 12.2891 21.7056 12.1873L21.8607 10.1933ZM29.7667 11.869C31.1531 12.3508 32.4062 12.8877 33.505 13.4211L32.6316 15.2203C31.5954 14.7173 30.4148 14.2116 29.1102 13.7582L29.7667 11.869ZM37.0317 15.3999C37.5667 15.7456 37.982 16.0385 38.2664 16.2472C38.4086 16.3516 38.5182 16.435 38.5936 16.4935C38.6314 16.5228 38.6606 16.5458 38.6812 16.5622C38.6914 16.5703 38.6995 16.5768 38.7054 16.5816C38.7084 16.584 38.7108 16.5859 38.7127 16.5874C38.7136 16.5882 38.7144 16.5888 38.715 16.5894C38.7154 16.5896 38.7156 16.5899 38.7159 16.5901C38.716 16.5901 38.7166 16.5906 38.0849 17.3658C37.4532 18.1411 37.4533 18.1411 37.4534 18.1412C37.453 18.1409 37.4526 18.1406 37.4512 18.1395C37.4484 18.1372 37.4434 18.1332 37.4363 18.1275C37.4221 18.1162 37.3993 18.0983 37.3682 18.0742C37.306 18.0259 37.2105 17.9531 37.0829 17.8595C36.8278 17.6722 36.4451 17.4021 35.9462 17.0796L37.0317 15.3999Z" fill="#B8B9BA"/>
</g>
</g>
<defs>
<clipPath id="clip0_1_662">
<rect width="39" height="26" fill="white" transform="matrix(1 0 0 -1 0.584961 26.3657)"/>
</clipPath>
<clipPath id="clip1_1_662">
<rect width="39" height="12" fill="white" transform="matrix(1 0 0 -1 0.584961 19.3657)"/>
</clipPath>
</defs>
</svg>
