<svg width="40" height="43" viewBox="0 0 40 43" fill="none" xmlns="http://www.w3.org/2000/svg">
<g clip-path="url(#clip0_8_2308)">
<g clip-path="url(#clip1_8_2308)">
<path d="M41.6295 32.8723C39.1681 31.1837 33.8208 32.3546 30.3107 33.4067C30.3407 33.224 30.3672 33.0398 30.3672 32.8489C30.3672 31.1094 29.0658 29.639 27.3406 29.4298C24.0189 29.0262 21.2992 27.7101 18.9009 26.5485C16.8143 25.5388 15.012 24.6663 13.304 24.6663C10.5773 24.6663 6.9751 25.8185 5.08329 26.4986V25.5969C5.08329 25.0823 4.6669 24.6663 4.15274 24.6663H-2.56872C-3.08327 24.6663 -3.49927 25.0827 -3.49927 25.5969V42.426C-3.49927 42.9405 -3.08287 43.3565 -2.56872 43.3565H4.15235C4.6669 43.3565 5.0829 42.9401 5.0829 42.426V41.1573L22.1822 43.3494C22.2212 43.3541 22.2613 43.3568 22.3002 43.3568C22.4019 43.3568 22.504 43.3405 22.6002 43.307L42.4038 36.5594C42.7812 36.4312 43.0348 36.0768 43.0348 35.6787C43.0348 34.4735 42.5484 33.5033 41.6295 32.8723ZM3.22185 27.8328V27.8355V41.4956H-1.63811V26.5272H3.22145L3.22185 27.8328ZM22.2058 41.4759L5.08355 39.2806V28.4833C6.5587 27.9279 10.55 26.528 13.3042 26.528C14.585 26.528 16.2089 27.314 18.0894 28.2247C20.4943 29.3882 23.4874 30.8368 27.1164 31.2785C27.9091 31.374 28.5063 32.0494 28.5063 32.8491C28.5063 33.7251 27.7927 34.4386 26.9167 34.4386H17.3381C16.8235 34.4386 16.4075 34.855 16.4075 35.3692C16.4075 35.8837 16.8239 36.2997 17.3381 36.2997H26.9167C27.0285 36.2997 27.1344 36.2772 27.2435 36.2666C27.4075 36.2974 27.5777 36.3009 27.744 36.2378C31.5823 34.7592 38.4595 32.9542 40.5775 34.4075C40.8221 34.5746 40.9865 34.7811 41.0799 35.0455L22.2058 41.4759Z" fill="#7209B7"/>
<path fill-rule="evenodd" clip-rule="evenodd" d="M22.1822 43.3494L5.0829 41.1573V42.426C5.0829 42.9401 4.6669 43.3565 4.15235 43.3565H-2.56872C-3.08287 43.3565 -3.49927 42.9405 -3.49927 42.426V25.5969C-3.49927 25.0827 -3.08327 24.6663 -2.56872 24.6663H4.15274C4.6669 24.6663 5.08329 25.0823 5.08329 25.5969V26.4986C5.23887 26.4427 5.40602 26.3836 5.58329 26.3222C7.5617 25.6368 10.8016 24.6663 13.304 24.6663C15.011 24.6663 16.8121 25.5378 18.8972 26.5467L18.9009 26.5485C21.2992 27.7101 24.0189 29.0262 27.3406 29.4298C29.0658 29.639 30.3672 31.1094 30.3672 32.8489C30.3672 32.8554 30.3672 32.8619 30.3671 32.8683C30.3654 33.0523 30.3397 33.2302 30.3107 33.4067C30.4827 33.3552 30.6591 33.3033 30.8393 33.2516C34.3378 32.2468 39.2885 31.2665 41.6294 32.8722C41.6478 32.8849 41.6664 32.8973 41.6845 32.9102C41.694 32.917 41.7035 32.9239 41.7129 32.9307C41.8221 33.0105 41.9248 33.0953 42.0209 33.185C42.686 33.8054 43.0348 34.6579 43.0348 35.6787C43.0348 36.0768 42.7812 36.4312 42.4038 36.5594L22.6002 43.307C22.504 43.3405 22.4019 43.3568 22.3002 43.3568C22.2613 43.3568 22.2212 43.3541 22.1822 43.3494ZM41.4865 32.2051L41.5045 32.1793L41.9128 32.4597C42.9799 33.1925 43.5348 34.3244 43.5348 35.6787C43.5348 36.2908 43.145 36.8358 42.5645 37.0328L22.7646 43.7792C22.764 43.7794 22.7634 43.7796 22.7628 43.7798C22.6116 43.8322 22.4543 43.8568 22.3002 43.8568C22.2386 43.8568 22.1784 43.8526 22.1226 43.8459L22.1186 43.8454L5.5829 41.7255V42.426C5.5829 43.2161 4.94318 43.8565 4.15235 43.8565H-2.56872C-3.35888 43.8565 -3.99927 43.2168 -3.99927 42.426V25.5969C-3.99927 24.8067 -3.35955 24.1663 -2.56872 24.1663H4.15274C4.9429 24.1663 5.58329 24.806 5.58329 25.5969V25.7933C7.5848 25.1082 10.7842 24.1663 13.304 24.1663C15.1263 24.1663 17.0159 25.0808 19.0356 26.0582L19.1187 26.0984C21.5221 27.2625 24.1724 28.5412 27.4008 28.9334M41.4865 32.2051C40.1111 31.4889 38.2045 31.4208 36.3125 31.6144C34.4552 31.8044 32.5065 32.2593 30.8652 32.7242C30.8046 30.7871 29.336 29.1681 27.4008 28.9334M18.0894 28.2247C16.2089 27.314 14.585 26.528 13.3042 26.528C10.55 26.528 6.5587 27.9279 5.08355 28.4833V39.2806L22.2058 41.4759L41.0799 35.0456C41.0206 34.8779 40.9329 34.7336 40.8143 34.6078C40.7458 34.5352 40.667 34.4687 40.5775 34.4075M40.2598 34.7967C39.8517 34.5343 39.1623 34.3838 38.2125 34.3724C37.2546 34.3609 36.1114 34.4908 34.8965 34.7149C32.4683 35.1627 29.8194 35.9741 27.9237 36.7044L27.9214 36.7053C27.6731 36.7995 27.4333 36.8002 27.2317 36.7714C27.2245 36.7724 27.217 36.7734 27.209 36.7745C27.1912 36.7769 27.1707 36.7797 27.1449 36.783C27.0843 36.7908 27.0048 36.7997 26.9167 36.7997H17.3381C16.5479 36.7997 15.9075 36.16 15.9075 35.3692C15.9075 34.579 16.5472 33.9386 17.3381 33.9386H26.9167C27.5165 33.9386 28.0063 33.4489 28.0063 32.8491C28.0063 32.3014 27.5971 31.84 27.0567 31.775C23.3464 31.3233 20.2912 29.8454 17.8938 28.6855L17.8717 28.6748C16.9264 28.217 16.0696 27.8026 15.2913 27.5011C14.509 27.198 13.8517 27.028 13.3042 27.028C11.9959 27.028 10.3619 27.3632 8.8467 27.7795C7.5411 28.1382 6.3523 28.5489 5.58355 28.8309V38.8406L22.1543 40.9652L40.2598 34.7967ZM27.2435 36.2666C27.2055 36.2703 27.1679 36.2754 27.1303 36.2806C27.0599 36.2901 26.9895 36.2997 26.9167 36.2997H17.3381C16.8239 36.2997 16.4075 35.8837 16.4075 35.3692C16.4075 34.855 16.8235 34.4386 17.3381 34.4386H26.9167C27.7927 34.4386 28.5063 33.7251 28.5063 32.8491C28.5063 32.0494 27.9091 31.374 27.1164 31.2785C23.4887 30.837 20.4965 29.3893 18.0922 28.2261L18.0894 28.2247M2.72161 27.0272H-1.13811V40.9956H2.72185L2.72161 27.0272ZM3.22145 26.5272L3.22185 41.4956H-1.63811V26.5272H3.22145Z" fill="#7209B7"/>
<path d="M29.4491 -0.643311C21.9584 -0.643311 15.8628 5.45064 15.8628 12.941C15.8628 20.4318 21.9576 26.5273 29.4491 26.5273C36.9399 26.5273 43.0344 20.4325 43.0344 12.942C43.0344 5.45084 36.9397 -0.643311 29.4491 -0.643311ZM29.4491 24.6666C22.9843 24.6666 17.7245 19.407 17.7245 12.942C17.7245 6.47701 22.9841 1.21839 29.4491 1.21839C35.9139 1.21839 41.1737 6.47721 41.1737 12.942C41.1737 19.4068 35.9141 24.6666 29.4491 24.6666Z" fill="#7209B7"/>
<path fill-rule="evenodd" clip-rule="evenodd" d="M15.3628 12.941C15.3628 5.17441 21.6823 -1.14331 29.4491 -1.14331C37.2158 -1.14331 43.5344 5.17468 43.5344 12.942C43.5344 20.7087 37.216 27.0273 29.4491 27.0273C21.6814 27.0273 15.3628 20.7079 15.3628 12.941ZM18.2245 12.942C18.2245 19.1308 23.2605 24.1666 29.4491 24.1666C35.638 24.1666 40.6737 19.1306 40.6737 12.942C40.6737 6.75341 35.6378 1.71839 29.4491 1.71839C23.2602 1.71839 18.2245 6.75321 18.2245 12.942ZM15.8628 12.941C15.8628 5.45064 21.9584 -0.64331 29.4491 -0.64331C36.9397 -0.64331 43.0344 5.45084 43.0344 12.942C43.0344 20.4325 36.9399 26.5273 29.4491 26.5273C21.9576 26.5273 15.8628 20.4318 15.8628 12.941ZM17.7245 12.942C17.7245 19.407 22.9843 24.6666 29.4491 24.6666C35.9141 24.6666 41.1737 19.4068 41.1737 12.942C41.1737 6.47721 35.9139 1.21839 29.4491 1.21839C22.9841 1.21839 17.7245 6.47702 17.7245 12.942Z" fill="#7209B7"/>
<path d="M29.4492 7.16746C31.0533 7.16746 32.3585 8.25453 32.3585 9.58943C32.3585 10.104 32.7749 10.52 33.2891 10.52C33.8036 10.52 34.2196 10.1036 34.2196 9.58943C34.2196 7.51337 32.5658 5.78041 30.3798 5.39052V4.13978C30.3798 3.62522 29.9634 3.20923 29.4492 3.20923C28.9347 3.20923 28.5187 3.62562 28.5187 4.13978V5.39052C26.3327 5.78043 24.6788 7.51337 24.6788 9.58943C24.6788 11.6153 26.2038 13.046 29.2112 13.8421C32.0325 14.59 32.3584 15.6 32.3584 16.2953C32.3584 17.6306 31.0532 18.7173 29.4491 18.7173C27.8451 18.7173 26.5398 17.6302 26.5398 16.2953C26.5398 15.7808 26.1234 15.3648 25.6093 15.3648C25.0947 15.3648 24.6787 15.7812 24.6787 16.2953C24.6787 18.3714 26.3326 20.1044 28.5186 20.4943V21.7458C28.5186 22.2604 28.935 22.6764 29.4491 22.6764C29.9637 22.6764 30.3797 22.26 30.3797 21.7458V20.4943C32.5657 20.1044 34.2195 18.3714 34.2195 16.2953C34.2195 13.2442 30.8086 12.3398 29.6872 12.0426C26.5399 11.2102 26.5399 9.99033 26.5399 9.58943C26.5399 8.25413 27.8448 7.16746 29.4492 7.16746Z" fill="#7209B7"/>
<path fill-rule="evenodd" clip-rule="evenodd" d="M29.815 11.5593L29.8263 11.5623C30.3895 11.7115 31.5857 12.0284 32.6461 12.7169C33.727 13.4186 34.7195 14.5448 34.7195 16.2953C34.7195 18.5177 33.0605 20.3374 30.8797 20.897V21.7458C30.8797 22.536 30.24 23.1764 29.4491 23.1764C28.659 23.1764 28.0186 22.5367 28.0186 21.7458V20.897C25.8378 20.3374 24.1787 18.5177 24.1787 16.2953C24.1787 15.5052 24.8184 14.8648 25.6093 14.8648C26.3994 14.8648 27.0398 15.5045 27.0398 16.2953C27.0398 17.2722 28.0316 18.2173 29.4491 18.2173C30.8667 18.2173 31.8584 17.2726 31.8584 16.2953C31.8584 16.048 31.809 15.7609 31.4898 15.4425C31.1452 15.0989 30.4559 14.6894 29.0831 14.3254C27.5358 13.9158 26.3152 13.3298 25.4751 12.5415C24.6205 11.7397 24.1788 10.7449 24.1788 9.58943C24.1788 7.36706 25.8379 5.54742 28.0187 4.98779V4.13978C28.0187 3.34962 28.6584 2.70923 29.4492 2.70923C30.2394 2.70923 30.8798 3.34894 30.8798 4.13978V4.98779C33.0606 5.5474 34.7196 7.36706 34.7196 9.58943C34.7196 10.3796 34.0799 11.02 33.2891 11.02C32.4989 11.02 31.8585 10.3803 31.8585 9.58943C31.8585 8.61253 30.8668 7.66746 29.4492 7.66746C28.0313 7.66746 27.0399 8.61213 27.0399 9.58943C27.0399 9.59223 27.0399 9.59503 27.0399 9.59793C27.0398 9.75393 27.0397 10.0099 27.313 10.3289C27.6131 10.6791 28.2889 11.1556 29.815 11.5593ZM30.3798 5.39052C32.5658 5.78041 34.2196 7.51337 34.2196 9.58943C34.2196 10.1036 33.8036 10.52 33.2891 10.52C32.7749 10.52 32.3585 10.104 32.3585 9.58943C32.3585 8.25453 31.0533 7.16746 29.4492 7.16746C27.8448 7.16746 26.5399 8.25413 26.5399 9.58943C26.5399 9.99033 26.5399 11.2102 29.6872 12.0426C30.8086 12.3398 34.2195 13.2442 34.2195 16.2953C34.2195 18.3714 32.5657 20.1044 30.3797 20.4943V21.7458C30.3797 22.26 29.9637 22.6764 29.4491 22.6764C28.935 22.6764 28.5186 22.2604 28.5186 21.7458V20.4943C26.3326 20.1044 24.6787 18.3714 24.6787 16.2953C24.6787 15.7812 25.0947 15.3648 25.6093 15.3648C26.1234 15.3648 26.5398 15.7808 26.5398 16.2953C26.5398 17.6302 27.8451 18.7173 29.4491 18.7173C31.0532 18.7173 32.3584 17.6306 32.3584 16.2953C32.3584 15.6 32.0325 14.59 29.2112 13.8421C26.2038 13.046 24.6788 11.6153 24.6788 9.58943C24.6788 7.51337 26.3327 5.78043 28.5187 5.39052V4.13978C28.5187 3.62562 28.9347 3.20923 29.4492 3.20923C29.9634 3.20923 30.3798 3.62522 30.3798 4.13978V5.39052Z" fill="#7209B7"/>
</g>
</g>
<defs>
<clipPath id="clip0_8_2308">
<rect width="38.4" height="42.08" fill="white" transform="translate(0.800049 -0.0100098)"/>
</clipPath>
<clipPath id="clip1_8_2308">
<rect width="48" height="46" fill="white" transform="translate(-4 -1.96997)"/>
</clipPath>
</defs>
</svg>
