<svg width="68" height="73" viewBox="0 0 68 73" fill="none" xmlns="http://www.w3.org/2000/svg">
<g clip-path="url(#clip0_1_672)">
<g clip-path="url(#clip1_1_672)">
<g clip-path="url(#clip2_1_672)">
<path fill-rule="evenodd" clip-rule="evenodd" d="M24.475 15.3502C24.475 14.0294 25.5059 13.0007 26.719 13.0007H40.968C42.1816 13.0007 43.2119 14.0299 43.2119 15.3502V19.8396H24.475V15.3502ZM22.975 19.8396V15.3502C22.975 13.2501 24.6292 11.5007 26.719 11.5007H40.968C43.0588 11.5007 44.7119 13.2511 44.7119 15.3502V19.8396H62.8595C65.0087 19.8396 66.7285 21.565 66.7285 23.7213L66.7284 35.3222L66.9542 36.0376C66.8791 36.0614 66.8038 36.0848 66.7284 36.1081L66.7283 58.118C66.7283 60.2744 65.0086 61.9998 62.8595 61.9998H4.82728C2.67813 61.9998 0.958471 60.2744 0.958471 58.118V36.0963L0.774963 36.0503L0.958471 35.3231V23.7213C0.958471 21.565 2.67813 19.8396 4.82728 19.8396H22.975ZM65.2285 23.7213L65.2284 34.9841C57.7996 37.0399 49.121 37.0663 41.1621 37.0904C39.9568 37.0941 38.768 37.0977 37.6025 37.1083V35.8314C37.6025 34.8118 36.7328 34.2672 35.9926 34.2672L31.6943 34.268C30.7197 34.268 30.0845 35.0345 30.0845 35.8321V37.1167C20.8798 37.1099 11.364 36.9536 2.45847 34.9127V23.7213C2.45847 22.3887 3.51128 21.3396 4.82728 21.3396H62.7874H62.8596C64.1757 21.3396 65.2285 22.3887 65.2285 23.7213ZM2.45847 58.118V36.4506C11.454 38.462 21.0027 38.6102 30.0843 38.6167V40.1056C30.0843 40.9031 30.7195 41.6697 31.6941 41.6697H35.9924C36.7327 41.6697 37.6023 41.1251 37.6023 40.1056V38.6084C38.7467 38.5982 39.9209 38.595 41.1172 38.5917C48.9195 38.5705 57.6638 38.5466 65.2284 36.538L65.2283 58.118C65.2283 59.4507 64.1755 60.4998 62.8595 60.4998H4.82728C3.51127 60.4998 2.45847 59.4507 2.45847 58.118ZM35.9926 35.7672L31.6945 35.768C31.6563 35.768 31.6345 35.7749 31.6243 35.7792C31.6136 35.7837 31.6068 35.7889 31.6018 35.7941C31.5893 35.807 31.5845 35.8236 31.5845 35.8321V37.867V38.617L31.5843 40.1056C31.5843 40.1141 31.5891 40.1306 31.6016 40.1436C31.6066 40.1487 31.6134 40.1539 31.6241 40.1584C31.6343 40.1627 31.6559 40.1697 31.6941 40.1697H35.9924C36.0118 40.1697 36.0327 40.1661 36.0521 40.159C36.0715 40.152 36.0846 40.1433 36.0919 40.137C36.0954 40.1339 36.0973 40.1317 36.0983 40.1305C36.0991 40.1293 36.0994 40.1288 36.0995 40.1286L36.1 40.1272L36.1006 40.1248C36.1009 40.1234 36.1014 40.1209 36.1018 40.1171C36.102 40.1141 36.1023 40.1103 36.1023 40.1056V37.867L36.1025 35.8314L36.1022 35.8232C36.1019 35.8176 36.1012 35.814 36.1008 35.8121C36.1002 35.8094 36.0997 35.8084 36.0997 35.8083C36.0996 35.8081 36.0993 35.8076 36.0985 35.8065C36.0975 35.8053 36.0956 35.803 36.0921 35.8C36.0848 35.7936 36.0717 35.7849 36.0523 35.7779C36.0329 35.7708 36.012 35.7673 35.9926 35.7672Z" fill="#B5179E"/>
</g>
</g>
</g>
<defs>
<clipPath id="clip0_1_672">
<rect width="67" height="72" fill="white" transform="translate(0.774963 0.360107)"/>
</clipPath>
<clipPath id="clip1_1_672">
<rect width="67" height="72" fill="white" transform="translate(0.774963 0.360107)"/>
</clipPath>
<clipPath id="clip2_1_672">
<rect width="67" height="72" fill="white" transform="translate(0.774963 0.360107)"/>
</clipPath>
</defs>
</svg>
