<svg width="71" height="82" viewBox="0 0 71 82" fill="none" xmlns="http://www.w3.org/2000/svg">
<g clip-path="url(#clip0_11_6558)">
<g clip-path="url(#clip1_11_6558)">
<g clip-path="url(#clip2_11_6558)">
<path fill-rule="evenodd" clip-rule="evenodd" d="M5.71918 65.6387H47.3248C48.7177 65.6373 50.0532 65.0827 51.0377 64.0981C52.0228 63.1131 52.5773 61.7777 52.5788 60.3849V53.7144C52.5788 52.7166 51.7702 51.9075 50.772 51.9075C49.7744 51.9075 48.9653 52.7166 48.9653 53.7144V60.3849C48.9653 61.2907 48.2308 62.0253 47.3248 62.0253H5.71918C4.81581 62.0253 4.08226 61.2953 4.07826 60.392V19.8703H15.2298C16.3797 19.8703 17.4827 19.4136 18.2958 18.6004C19.109 17.7873 19.5657 16.6843 19.5657 15.5344V4.36867H47.3252C48.2255 4.3727 48.9546 5.10165 48.9585 6.00197V15.4475C48.9585 16.4452 49.7676 17.2543 50.7653 17.2543C51.763 17.2543 52.5721 16.4452 52.5721 15.4475V6.00197C52.57 4.61064 52.0165 3.27726 51.0329 2.29373C50.0494 1.3102 48.716 0.756707 47.3252 0.755158H19.3269C17.8519 0.749108 16.4359 1.33489 15.3958 2.38098L2.09816 15.6864C1.0501 16.7259 0.461759 18.1415 0.464856 19.6181V60.3926C0.466872 61.785 1.0214 63.1194 2.0064 64.1035C2.99145 65.087 4.3267 65.6387 5.71918 65.6387ZM16.0032 6.91927V15.5125C16.0032 15.704 15.9271 15.888 15.7915 16.0236C15.6559 16.1588 15.4718 16.2349 15.2804 16.2349H6.60804L16.0032 6.91927ZM39.8961 20.6222C40.8939 20.6222 41.703 19.8136 41.703 18.8154C41.703 17.8178 40.8939 17.0087 39.8961 17.0087H28.0581C27.0604 17.0087 26.2513 17.8178 26.2513 18.8154C26.2513 19.8136 27.0604 20.6222 28.0581 20.6222H39.8961ZM11.4688 29.0498C11.1296 28.7079 10.941 28.2446 10.9451 27.7627C10.9526 26.7706 11.7592 25.9706 12.7518 25.9706H38.8633C39.8609 25.9706 40.67 26.7797 40.67 27.7774C40.67 28.775 39.8609 29.5841 38.8633 29.5841H12.7518C12.2699 29.5841 11.8081 29.3915 11.4688 29.0498ZM29.9082 36.7088C29.9082 36.2299 29.7181 35.7701 29.3793 35.4313C29.0401 35.0925 28.5808 34.902 28.1014 34.902H12.7517C11.7536 34.902 10.945 35.7112 10.945 36.7088C10.945 37.707 11.7536 38.5155 12.7517 38.5155H28.1014C28.5808 38.5155 29.0401 38.3255 29.3793 37.9867C29.7181 37.6475 29.9082 37.1881 29.9082 36.7088ZM24.2768 44.3787C24.6156 44.7174 24.8061 45.1772 24.8061 45.6561C24.8061 46.1355 24.6156 46.5947 24.2768 46.934C23.938 47.2728 23.4788 47.4629 22.9994 47.4629H12.7517C11.7536 47.4629 10.945 46.6542 10.945 45.6561C10.945 44.6584 11.7536 43.8493 12.7517 43.8493H22.9994C23.4788 43.8493 23.938 44.0399 24.2768 44.3787ZM66.6951 29.7567L68.2487 28.1379C69.7157 26.6527 70.5466 24.6544 70.5641 22.5669C70.5817 20.4794 69.7847 18.4669 68.3424 16.9576C66.8659 15.4573 64.8464 14.6159 62.7417 14.623C60.6311 14.6235 58.6105 15.479 57.1405 16.9939L34.4697 39.8235C30.4756 43.9098 27.8728 49.1526 27.0335 54.8053C26.8858 55.7818 27.1716 56.7739 27.8158 57.5226C28.4601 58.2706 29.3989 58.7012 30.3863 58.7006C30.585 58.7012 30.7836 58.6846 30.9792 58.6497C36.5991 57.6586 41.7632 54.9199 45.7364 50.8233L63.2181 33.2461L65.8344 35.7899L55.485 46.4141C55.1442 46.7554 54.9536 47.2197 54.9572 47.7027C54.9607 48.1856 55.1568 48.6469 55.5026 48.9841C55.8485 49.3214 56.3147 49.5059 56.7977 49.4969C57.2801 49.4878 57.7394 49.2861 58.0726 48.9362L68.523 38.2041C69.1637 37.5453 69.5166 36.6585 69.503 35.739C69.4894 34.82 69.1107 33.9438 68.4504 33.3041L65.7548 30.6878L66.6728 29.7698L66.6951 29.7567ZM43.1634 48.2939C39.7868 51.7739 35.4181 54.1265 30.6536 55.0294C31.427 50.2467 33.6582 45.8202 37.0424 42.3534L59.6913 19.5379C60.4873 18.7162 61.5822 18.2519 62.7266 18.2514C63.865 18.2488 64.9563 18.7046 65.7549 19.5162C66.5353 20.35 66.9597 21.455 66.9381 22.5968C66.9164 23.7382 66.4506 24.8266 65.639 25.6301L64.0924 27.2201L43.1634 48.2939ZM10.945 54.597C10.945 53.5993 11.7536 52.7902 12.7517 52.7902H21.0625C22.0602 52.7902 22.8693 53.5993 22.8693 54.597C22.8693 55.5946 22.0602 56.4037 21.0625 56.4037H12.7517C11.7536 56.4037 10.945 55.5946 10.945 54.597Z" fill="white"/>
<mask id="mask0_11_6558" style="mask-type:luminance" maskUnits="userSpaceOnUse" x="0" y="0" width="71" height="66">
<path fill-rule="evenodd" clip-rule="evenodd" d="M5.71918 65.6387H47.3248C48.7177 65.6373 50.0532 65.0827 51.0377 64.0981C52.0228 63.1131 52.5773 61.7777 52.5788 60.3849V53.7144C52.5788 52.7166 51.7702 51.9075 50.772 51.9075C49.7744 51.9075 48.9653 52.7166 48.9653 53.7144V60.3849C48.9653 61.2907 48.2308 62.0253 47.3248 62.0253H5.71918C4.81581 62.0253 4.08226 61.2953 4.07826 60.392V19.8703H15.2298C16.3797 19.8703 17.4827 19.4136 18.2958 18.6004C19.109 17.7873 19.5657 16.6843 19.5657 15.5344V4.36867H47.3252C48.2255 4.3727 48.9546 5.10165 48.9585 6.00197V15.4475C48.9585 16.4452 49.7676 17.2543 50.7653 17.2543C51.763 17.2543 52.5721 16.4452 52.5721 15.4475V6.00197C52.57 4.61064 52.0165 3.27726 51.0329 2.29373C50.0494 1.3102 48.716 0.756707 47.3252 0.755158H19.3269C17.8519 0.749108 16.4359 1.33489 15.3958 2.38098L2.09816 15.6864C1.0501 16.7259 0.461759 18.1415 0.464856 19.6181V60.3926C0.466872 61.785 1.0214 63.1194 2.0064 64.1035C2.99145 65.087 4.3267 65.6387 5.71918 65.6387ZM16.0032 6.91927V15.5125C16.0032 15.704 15.9271 15.888 15.7915 16.0236C15.6559 16.1588 15.4718 16.2349 15.2804 16.2349H6.60804L16.0032 6.91927ZM39.8961 20.6222C40.8939 20.6222 41.703 19.8136 41.703 18.8154C41.703 17.8178 40.8939 17.0087 39.8961 17.0087H28.0581C27.0604 17.0087 26.2513 17.8178 26.2513 18.8154C26.2513 19.8136 27.0604 20.6222 28.0581 20.6222H39.8961ZM11.4688 29.0498C11.1296 28.7079 10.941 28.2446 10.9451 27.7627C10.9526 26.7706 11.7592 25.9706 12.7518 25.9706H38.8633C39.8609 25.9706 40.67 26.7797 40.67 27.7774C40.67 28.775 39.8609 29.5841 38.8633 29.5841H12.7518C12.2699 29.5841 11.8081 29.3915 11.4688 29.0498ZM29.9082 36.7088C29.9082 36.2299 29.7181 35.7701 29.3793 35.4313C29.0401 35.0925 28.5808 34.902 28.1014 34.902H12.7517C11.7536 34.902 10.945 35.7112 10.945 36.7088C10.945 37.707 11.7536 38.5155 12.7517 38.5155H28.1014C28.5808 38.5155 29.0401 38.3255 29.3793 37.9867C29.7181 37.6475 29.9082 37.1881 29.9082 36.7088ZM24.2768 44.3787C24.6156 44.7174 24.8061 45.1772 24.8061 45.6561C24.8061 46.1355 24.6156 46.5947 24.2768 46.934C23.938 47.2728 23.4788 47.4629 22.9994 47.4629H12.7517C11.7536 47.4629 10.945 46.6542 10.945 45.6561C10.945 44.6584 11.7536 43.8493 12.7517 43.8493H22.9994C23.4788 43.8493 23.938 44.0399 24.2768 44.3787ZM66.6951 29.7567L68.2487 28.1379C69.7157 26.6527 70.5466 24.6544 70.5641 22.5669C70.5817 20.4794 69.7847 18.4669 68.3424 16.9576C66.8659 15.4573 64.8464 14.6159 62.7417 14.623C60.6311 14.6235 58.6105 15.479 57.1405 16.9939L34.4697 39.8235C30.4756 43.9098 27.8728 49.1526 27.0335 54.8053C26.8858 55.7818 27.1716 56.7739 27.8158 57.5226C28.4601 58.2706 29.3989 58.7012 30.3863 58.7006C30.585 58.7012 30.7836 58.6846 30.9792 58.6497C36.5991 57.6586 41.7632 54.9199 45.7364 50.8233L63.2181 33.2461L65.8344 35.7899L55.485 46.4141C55.1442 46.7554 54.9536 47.2197 54.9572 47.7027C54.9607 48.1856 55.1568 48.6469 55.5026 48.9841C55.8485 49.3214 56.3147 49.5059 56.7977 49.4969C57.2801 49.4878 57.7394 49.2861 58.0726 48.9362L68.523 38.2041C69.1637 37.5453 69.5166 36.6585 69.503 35.739C69.4894 34.82 69.1107 33.9438 68.4504 33.3041L65.7548 30.6878L66.6728 29.7698L66.6951 29.7567ZM43.1634 48.2939C39.7868 51.7739 35.4181 54.1265 30.6536 55.0294C31.427 50.2467 33.6582 45.8202 37.0424 42.3534L59.6913 19.5379C60.4873 18.7162 61.5822 18.2519 62.7266 18.2514C63.865 18.2488 64.9563 18.7046 65.7549 19.5162C66.5353 20.35 66.9597 21.455 66.9381 22.5968C66.9164 23.7382 66.4506 24.8266 65.639 25.6301L64.0924 27.2201L43.1634 48.2939ZM10.945 54.597C10.945 53.5993 11.7536 52.7902 12.7517 52.7902H21.0625C22.0602 52.7902 22.8693 53.5993 22.8693 54.597C22.8693 55.5946 22.0602 56.4037 21.0625 56.4037H12.7517C11.7536 56.4037 10.945 55.5946 10.945 54.597Z" fill="white"/>
</mask>
<g mask="url(#mask0_11_6558)">
<path d="M5.71943 65.6387V65.1776H5.18146L5.26366 65.7092L5.71943 65.6387ZM4.0785 60.392H3.61732L3.61733 60.394L4.0785 60.392ZM4.0785 19.8703V19.4092H3.61732V19.8703H4.0785ZM19.566 4.36867V3.90749H19.1048V4.36867H19.566ZM47.3255 4.36867L47.3275 3.90749H47.3255V4.36867ZM48.9588 6.00197H49.42V5.99992L48.9588 6.00197ZM19.3272 0.755157L19.3253 1.21633H19.3272V0.755157ZM15.3961 2.38098L15.7223 2.70699L15.7232 2.70614L15.3961 2.38098ZM2.0984 15.6864L2.42317 16.0139L2.42461 16.0125L2.0984 15.6864ZM0.465099 19.6181H0.926281L0.926279 19.6171L0.465099 19.6181ZM5.71943 65.6387L5.71953 66.1006H6.25749L6.1753 65.569L5.71943 65.6387ZM16.0035 6.91926H16.4646V5.81254L15.6788 6.59177L16.0035 6.91926ZM6.60828 16.2349L6.28357 15.9073L5.48816 16.696H6.60828V16.2349ZM10.9453 27.7627H11.4065L10.4841 27.7588L10.9453 27.7627ZM10.9453 27.7627H10.4841L11.4065 27.7663L10.9453 27.7627ZM68.2489 28.1379L67.9209 27.8138L67.9163 27.8185L68.2489 28.1379ZM66.6953 29.7567L66.9306 30.1533L66.9846 30.1213L67.028 30.076L66.6953 29.7567ZM68.3427 16.9576L68.6761 16.6389L68.6714 16.6341L68.3427 16.9576ZM62.742 14.623L62.7421 15.0842H62.7436L62.742 14.623ZM57.1408 16.9939L57.4681 17.3188L57.4718 17.315L57.1408 16.9939ZM34.47 39.8235L34.1427 39.4985L34.1401 39.5011L34.47 39.8235ZM27.0337 54.8053L27.4897 54.8743L27.4899 54.8731L27.0337 54.8053ZM30.3866 58.7006L30.3878 58.2395H30.3864L30.3866 58.7006ZM45.7367 50.8233L45.4097 50.4981L45.4057 50.5022L45.7367 50.8233ZM63.2184 33.2461L63.5398 32.9155L63.2129 32.5976L62.8914 32.9209L63.2184 33.2461ZM65.8347 35.7899L66.1651 36.1117L66.4871 35.7811L66.1562 35.4593L65.8347 35.7899ZM55.4852 46.4141L55.8116 46.7401L55.8155 46.736L55.4852 46.4141ZM58.0728 48.9362L57.7424 48.6145L57.7389 48.6182L58.0728 48.9362ZM65.7551 30.6878L65.429 30.3617L65.098 30.6927L65.4339 31.0187L65.7551 30.6878ZM66.6731 29.7698L66.4378 29.3731L66.388 29.4028L66.347 29.4437L66.6731 29.7698ZM30.6539 55.0294L30.1987 54.9558L30.0937 55.6049L30.7397 55.4825L30.6539 55.0294ZM43.1637 48.2939L42.8364 47.969L42.8326 47.9727L43.1637 48.2939ZM37.0426 42.3534L36.7153 42.0284L36.7126 42.0312L37.0426 42.3534ZM59.6916 19.5379L60.0189 19.8628L60.0228 19.8588L59.6916 19.5379ZM65.7552 19.5162L66.092 19.201L66.0839 19.1928L65.7552 19.5162ZM65.6392 25.6301L65.3147 25.3024L65.3086 25.3086L65.6392 25.6301ZM64.0927 27.2201L64.42 27.545L64.4233 27.5416L64.0927 27.2201ZM47.3251 65.1776H5.71943L5.71953 66.1006L47.3251 66.0999V65.1776ZM50.7119 63.7721C49.8136 64.6703 48.5957 65.1762 47.3251 65.1776V66.0999C48.8402 66.0983 50.2932 65.4951 51.3641 64.4243L50.7119 63.7721ZM52.1179 60.3844C52.1166 61.655 51.6107 62.8732 50.7119 63.7721L51.3641 64.4243C52.4354 63.3529 53.0387 61.9005 53.0402 60.3853L52.1179 60.3844ZM52.1179 53.7144V60.3844L53.0402 60.3853V53.7144H52.1179ZM50.7722 52.3687C51.5157 52.3687 52.1179 52.9713 52.1179 53.7144H53.0402C53.0402 52.4621 52.0252 51.4464 50.7722 51.4464V52.3687ZM49.4267 53.7144C49.4267 52.9714 50.0293 52.3687 50.7722 52.3687V51.4464C49.5199 51.4464 48.5043 52.462 48.5043 53.7144H49.4267ZM49.4267 60.3849V53.7144H48.5043V60.3849H49.4267ZM47.3251 62.4865C48.4857 62.4865 49.4267 61.5455 49.4267 60.3849H48.5043C48.5043 61.0361 47.9763 61.5641 47.3251 61.5641V62.4865ZM5.71943 62.4865H47.3251V61.5641H5.71943V62.4865ZM3.61733 60.394C3.62245 61.5514 4.56227 62.4865 5.71943 62.4865V61.5641C5.06983 61.5641 4.54256 61.0392 4.53968 60.3899L3.61733 60.394ZM3.61732 19.8703V60.392H4.53968V19.8703H3.61732ZM15.2301 19.4092H4.0785V20.3315H15.2301V19.4092ZM17.97 18.2744C17.2434 19.001 16.2577 19.4092 15.2301 19.4092V20.3315C16.5022 20.3315 17.7226 19.8263 18.6222 18.9266L17.97 18.2744ZM19.1048 15.5344C19.1048 16.562 18.6967 17.5477 17.97 18.2744L18.6222 18.9266C19.5219 18.0269 20.0272 16.8065 20.0272 15.5344H19.1048ZM19.1048 4.36867V15.5344H20.0272V4.36867H19.1048ZM47.3255 3.90749H19.566V4.82985H47.3255V3.90749ZM49.42 5.99992C49.4148 4.8465 48.481 3.91265 47.3275 3.90749L47.3234 4.82984C47.9707 4.83275 48.4947 5.35681 48.4976 6.00402L49.42 5.99992ZM49.42 15.4475V6.00197H48.4976V15.4475H49.42ZM50.7655 16.7932C50.0225 16.7932 49.42 16.1905 49.42 15.4475H48.4976C48.4976 16.6999 49.5132 17.7155 50.7655 17.7155V16.7932ZM52.1111 15.4475C52.1111 16.1905 51.5085 16.7932 50.7655 16.7932V17.7155C52.0179 17.7155 53.0335 16.6999 53.0335 15.4475H52.1111ZM52.1111 6.00197V15.4475H53.0335V6.00197H52.1111ZM50.7071 2.61984C51.6043 3.51704 52.1093 4.73272 52.1111 6.00197H53.0335C53.0313 4.48856 52.4292 3.03747 51.3593 1.96762L50.7071 2.61984ZM47.3249 1.21633C48.5935 1.21775 49.8098 1.72262 50.7071 2.61984L51.3593 1.96762C50.2895 0.897786 48.839 0.295662 47.326 0.293977L47.3249 1.21633ZM19.3272 1.21633H47.3249L47.326 0.293977H19.3272V1.21633ZM15.7232 2.70614C16.6762 1.74754 17.9737 1.21079 19.3253 1.21633L19.3291 0.29398C17.7306 0.287424 16.1961 0.922244 15.0691 2.05582L15.7232 2.70614ZM2.42461 16.0125L15.7223 2.70699L15.0699 2.05497L1.77221 15.3605L2.42461 16.0125ZM0.926279 19.6171C0.923441 18.2638 1.46262 16.9666 2.42317 16.0139L1.77364 15.359C0.638076 16.4853 0.00056388 18.0191 0.00391943 19.619L0.926279 19.6171ZM0.92628 60.3926L0.926281 19.6181L0.00391943 19.619L0.0039185 60.3926H0.92628ZM2.33259 63.7772C1.43397 62.8795 0.928119 61.6627 0.92628 60.3926H0.0039185C0.00611187 61.9072 0.60932 63.3594 1.6807 64.4297L2.33259 63.7772ZM5.71943 65.1776C4.44909 65.1776 3.23115 64.6744 2.33259 63.7772L1.6807 64.4297C2.75224 65.4996 4.20488 66.1006 5.71953 66.1006L5.71943 65.1776ZM16.4646 15.5125V6.91926H15.5423V15.5125H16.4646ZM16.1173 16.3503C16.3395 16.1282 16.4646 15.8262 16.4646 15.5125H15.5423C15.5423 15.5818 15.5147 15.6484 15.4656 15.6975L16.1173 16.3503ZM15.2806 16.696C15.5943 16.696 15.8953 16.5714 16.1173 16.3503L15.4656 15.6975C15.4164 15.7466 15.35 15.7737 15.2806 15.7737V16.696ZM6.60828 16.696H15.2806V15.7737H6.60828V16.696ZM15.6788 6.59177L6.28357 15.9073L6.933 16.5623L16.3282 7.24675L15.6788 6.59177ZM41.242 18.8154C41.242 19.5588 40.6395 20.161 39.8964 20.161V21.0833C41.1487 21.0833 42.1644 20.0684 42.1644 18.8154H41.242ZM39.8964 17.4699C40.6394 17.4699 41.242 18.0725 41.242 18.8154H42.1644C42.1644 17.5631 41.1488 16.5475 39.8964 16.5475V17.4699ZM28.0583 17.4699H39.8964V16.5475H28.0583V17.4699ZM26.7127 18.8154C26.7127 18.0725 27.3154 17.4699 28.0583 17.4699V16.5475C26.806 16.5475 25.7904 17.5631 25.7904 18.8154H26.7127ZM28.0583 20.161C27.3153 20.161 26.7127 19.5588 26.7127 18.8154H25.7904C25.7904 20.0684 26.8061 21.0833 28.0583 21.0833V20.161ZM39.8964 20.161H28.0583V21.0833H39.8964V20.161ZM10.4841 27.7588C10.4791 28.3637 10.7157 28.9454 11.1418 29.3746L11.7964 28.7248C11.5438 28.4704 11.4035 28.1253 11.4065 27.7663L10.4841 27.7588ZM12.752 25.5094C11.5063 25.5094 10.4937 26.5132 10.4841 27.7588L11.4065 27.7663C11.4121 27.0277 12.0126 26.4317 12.752 26.4317V25.5094ZM38.8635 25.5094H12.752V26.4317H38.8635V25.5094ZM41.1314 27.7774C41.1314 26.525 40.1159 25.5094 38.8635 25.5094V26.4317C39.6065 26.4317 40.2091 27.0344 40.2091 27.7774H41.1314ZM38.8635 30.0453C40.1159 30.0453 41.1314 29.0297 41.1314 27.7774H40.2091C40.2091 28.5202 39.6065 29.1229 38.8635 29.1229V30.0453ZM12.752 30.0453H38.8635V29.1229H12.752V30.0453ZM11.1418 29.3746C11.5675 29.8035 12.1471 30.0453 12.752 30.0453V29.1229C12.3932 29.1229 12.0492 28.9795 11.7964 28.7248L11.1418 29.3746ZM29.0535 35.7575C29.3056 36.0095 29.4472 36.3519 29.4472 36.7088H30.3696C30.3696 36.1078 30.1311 35.5306 29.7057 35.1053L29.0535 35.7575ZM28.1016 35.3631C28.4585 35.3631 28.8004 35.5048 29.0535 35.7575L29.7057 35.1053C29.2802 34.6804 28.7036 34.4408 28.1016 34.4408V35.3631ZM12.752 35.3631H28.1016V34.4408H12.752V35.3631ZM11.4064 36.7088C11.4064 35.9657 12.0086 35.3631 12.752 35.3631V34.4408C11.499 34.4408 10.484 35.4565 10.484 36.7088H11.4064ZM12.752 38.0543C12.0085 38.0543 11.4064 37.4522 11.4064 36.7088H10.484C10.484 37.9616 11.4991 38.9767 12.752 38.9767V38.0543ZM28.1016 38.0543H12.752V38.9767H28.1016V38.0543ZM29.0538 37.6604C28.8009 37.9128 28.4588 38.0543 28.1016 38.0543V38.9767C28.7033 38.9767 29.2797 38.7382 29.7054 38.313L29.0538 37.6604ZM29.4472 36.7088C29.4472 37.0659 29.3062 37.4076 29.0538 37.6604L29.7054 38.313C30.1304 37.8873 30.3696 37.3103 30.3696 36.7088H29.4472ZM25.2676 45.6561C25.2676 45.0548 25.0283 44.4777 24.6032 44.0525L23.951 44.7047C24.2033 44.9571 24.3452 45.2996 24.3452 45.6561H25.2676ZM24.6032 47.2601C25.0281 46.8346 25.2676 46.258 25.2676 45.6561H24.3452C24.3452 46.0129 24.2034 46.3551 23.9507 46.6081L24.6032 47.2601ZM22.9997 47.924C23.6012 47.924 24.1778 47.6854 24.6032 47.2601L23.9507 46.6081C23.6985 46.8603 23.3569 47.0017 22.9997 47.0017V47.924ZM12.752 47.924H22.9997V47.0017H12.752V47.924ZM10.484 45.6561C10.484 46.9089 11.4991 47.924 12.752 47.924V47.0017C12.0085 47.0017 11.4064 46.3995 11.4064 45.6561H10.484ZM12.752 43.3881C11.499 43.3881 10.484 44.4038 10.484 45.6561H11.4064C11.4064 44.913 12.0086 44.3105 12.752 44.3105V43.3881ZM22.9997 43.3881H12.752V44.3105H22.9997V43.3881ZM24.6032 44.0525C24.1781 43.6274 23.6015 43.3881 22.9997 43.3881V44.3105C23.3565 44.3105 23.6985 44.4524 23.951 44.7047L24.6032 44.0525ZM67.9163 27.8185L66.3626 29.4373L67.028 30.076L68.5817 28.4572L67.9163 27.8185ZM70.1032 22.563C70.0867 24.5306 69.3036 26.4139 67.9209 27.8138L68.5771 28.462C70.1283 26.8915 71.007 24.7784 71.0255 22.5708L70.1032 22.563ZM68.0092 17.2762C69.3686 18.6987 70.1198 20.5955 70.1032 22.563L71.0255 22.5708C71.0442 20.3632 70.2013 18.2351 68.6761 16.6389L68.0092 17.2762ZM62.7436 15.0842C64.7241 15.0775 66.6246 15.8693 68.014 17.2811L68.6714 16.6341C67.1077 15.0453 64.9691 14.1543 62.7404 14.1618L62.7436 15.0842ZM57.4718 17.315C58.8549 15.8896 60.7561 15.0847 62.7421 15.0842L62.7419 14.1618C60.5065 14.1623 58.3666 15.0684 56.8098 16.6727L57.4718 17.315ZM34.7971 40.1484L57.4681 17.3188L56.8136 16.6689L34.1427 39.4985L34.7971 40.1484ZM27.4899 54.8731C28.315 49.3164 30.8735 44.1628 34.7997 40.1459L34.1401 39.5011C30.0781 43.6569 27.4311 48.9888 26.5775 54.7376L27.4899 54.8731ZM28.1656 57.2217C27.609 56.5749 27.3622 55.7178 27.4897 54.8743L26.5777 54.7363C26.4099 55.8458 26.7347 56.973 27.4666 57.8234L28.1656 57.2217ZM30.3864 58.2395C29.5333 58.2399 28.7223 57.8681 28.1656 57.2217L27.4666 57.8234C28.1984 58.6732 29.2649 59.1625 30.3869 59.1618L30.3864 58.2395ZM30.8993 58.1956C30.7317 58.2253 30.5599 58.2399 30.3878 58.2395L30.3854 59.1618C30.6105 59.1625 30.8366 59.1436 31.0602 59.1038L30.8993 58.1956ZM45.4057 50.5022C41.4999 54.5291 36.4237 57.2214 30.8993 58.1956L31.0602 59.1038C36.7757 58.0959 42.027 55.3106 46.0678 51.1444L45.4057 50.5022ZM62.8914 32.9209L45.4097 50.4981L46.0638 51.1485L63.5454 33.5714L62.8914 32.9209ZM66.1562 35.4593L63.5398 32.9155L62.8969 33.5768L65.5132 36.1206L66.1562 35.4593ZM55.8155 46.736L66.1651 36.1117L65.5044 35.4681L55.1548 46.0923L55.8155 46.736ZM55.4185 47.6994C55.416 47.3399 55.5578 46.9942 55.8116 46.7401L55.1589 46.0883C54.731 46.5167 54.4918 47.0995 54.4963 47.7061L55.4185 47.6994ZM55.8248 48.654C55.5673 48.4028 55.4212 48.0594 55.4185 47.6994L54.4963 47.7061C54.5007 48.312 54.7468 48.891 55.1808 49.3143L55.8248 48.654ZM56.7893 49.0358C56.4295 49.0425 56.0824 48.9051 55.8248 48.654L55.1808 49.3143C55.6151 49.7378 56.2004 49.9694 56.8066 49.9579L56.7893 49.0358ZM57.7389 48.6182C57.4907 48.8788 57.1486 49.029 56.7893 49.0358L56.8066 49.9579C57.4121 49.9466 57.9885 49.6935 58.4068 49.2544L57.7389 48.6182ZM68.1929 37.8824L57.7424 48.6145L58.4032 49.258L68.8536 38.5259L68.1929 37.8824ZM69.0421 35.7457C69.0539 36.5428 68.7483 37.3112 68.1929 37.8824L68.8536 38.5259C69.5797 37.7794 69.9798 36.7742 69.9643 35.7322L69.0421 35.7457ZM68.1294 33.635C68.7017 34.1894 69.0303 34.9491 69.0421 35.7457L69.9643 35.7322C69.9489 34.6907 69.5199 33.6978 68.7716 32.9728L68.1294 33.635ZM65.4339 31.0187L68.1294 33.635L68.7716 32.9728L66.0763 30.3568L65.4339 31.0187ZM66.347 29.4437L65.429 30.3617L66.0812 31.0139L66.9992 30.0959L66.347 29.4437ZM66.46 29.36L66.4378 29.3731L66.9084 30.1665L66.9306 30.1533L66.46 29.36ZM30.7397 55.4825C35.5975 54.5619 40.0519 52.1632 43.4946 48.6151L42.8326 47.9727C39.5222 51.3846 35.2391 53.6911 30.5681 54.5762L30.7397 55.4825ZM36.7126 42.0312C33.262 45.566 30.9871 50.0793 30.1987 54.9558L31.1092 55.103C31.8673 50.4141 34.0548 46.0744 37.3726 42.6754L36.7126 42.0312ZM59.3643 19.213L36.7153 42.0284L37.3699 42.6782L60.0189 19.8628L59.3643 19.213ZM62.7267 17.7902C61.4574 17.7908 60.2431 18.3057 59.3603 19.217L60.0228 19.8588C60.732 19.1266 61.7075 18.7131 62.7271 18.7126L62.7267 17.7902ZM66.0839 19.1928C65.1983 18.2927 63.9889 17.7874 62.7267 17.7902L62.7271 18.7126C63.7415 18.7103 64.7147 19.1164 65.4264 19.8396L66.0839 19.1928ZM67.3994 22.6056C67.4233 21.3436 66.9543 20.1224 66.092 19.201L65.4184 19.8313C66.1168 20.5775 66.4967 21.5663 66.4772 22.5881L67.3994 22.6056ZM65.9637 25.9578C66.8607 25.0697 67.3755 23.8669 67.3994 22.6056L66.4772 22.5881C66.4578 23.6094 66.041 24.5833 65.3147 25.3024L65.9637 25.9578ZM64.4233 27.5416L65.9698 25.9517L65.3086 25.3086L63.7621 26.8985L64.4233 27.5416ZM43.4908 48.6189L64.42 27.545L63.7654 26.8951L42.8364 47.969L43.4908 48.6189ZM12.752 52.3291C11.499 52.3291 10.484 53.3447 10.484 54.597H11.4064C11.4064 53.8539 12.0086 53.2514 12.752 53.2514V52.3291ZM21.0628 52.3291H12.752V53.2514H21.0628V52.3291ZM23.3307 54.597C23.3307 53.3446 22.3152 52.3291 21.0628 52.3291V53.2514C21.8058 53.2514 22.4083 53.854 22.4083 54.597H23.3307ZM21.0628 56.8649C22.3152 56.8649 23.3307 55.8493 23.3307 54.597H22.4083C22.4083 55.3399 21.8058 55.9425 21.0628 55.9425V56.8649ZM12.752 56.8649H21.0628V55.9425H12.752V56.8649ZM10.484 54.597C10.484 55.8493 11.499 56.8649 12.752 56.8649V55.9425C12.0086 55.9425 11.4064 55.34 11.4064 54.597H10.484Z" fill="#7209B7"/>
</g>
</g>
</g>
</g>
<defs>
<clipPath id="clip0_11_6558">
<rect width="70.11" height="66.41" fill="white" transform="translate(0.459961)"/>
</clipPath>
<clipPath id="clip1_11_6558">
<rect width="70.11" height="66.41" fill="white" transform="translate(0.459961)"/>
</clipPath>
<clipPath id="clip2_11_6558">
<rect width="70.0994" height="66.41" fill="white" transform="translate(0.464844)"/>
</clipPath>
</defs>
</svg>
