<svg width="60" height="73" viewBox="0 0 60 73" fill="none" xmlns="http://www.w3.org/2000/svg">
<g clip-path="url(#clip0_1_692)">
<path d="M40.2301 25.4638V22.7603M40.2301 39.7603V37.032" stroke="#B5179E" stroke-width="1.5"/>
<path d="M42.9843 28.3075C42.9832 27.6565 42.7594 27.0239 42.3484 26.5094C41.9371 25.9949 41.3616 25.6271 40.7122 25.4642L39.1971 25.4639C38.2371 25.704 37.4587 26.3853 37.1139 27.2873C36.7691 28.1897 36.9013 29.1986 37.4678 29.9882C38.0339 30.7781 38.963 31.2485 39.9546 31.2481C40.9462 31.2474 41.8753 31.7178 42.4418 32.5077C43.0082 33.2973 43.1401 34.3062 42.7953 35.2086C42.4505 36.1106 41.6721 36.7919 40.7122 37.032H39.197C38.5476 36.8688 37.9721 36.501 37.5608 35.9865C37.1498 35.472 36.926 34.8393 36.9249 34.1884" stroke="#B5179E" stroke-width="1.5"/>
<path d="M19.0316 65.7843V48.8674C19.0316 48.5468 18.9047 48.2396 18.678 48.013C18.4514 47.7863 18.1442 47.6588 17.8236 47.6588H14.5137L23.8655 37.3715L33.2167 47.6588H29.9074C29.5868 47.6588 29.279 47.7863 29.0524 48.013C28.8257 48.2396 28.6988 48.5468 28.6988 48.8674V65.7843M31.1153 41.7548V29.5338C31.1153 29.2132 30.9883 28.906 30.7617 28.6794C30.535 28.4527 30.2272 28.3252 29.9072 28.3252H25.5737L39.5738 14.3257L53.5739 28.3258L49.2409 28.3252C48.9204 28.3252 48.6126 28.4527 48.3859 28.6794C48.1593 28.906 48.0323 29.2132 48.0323 29.5338V65.785" stroke="#B5179E" stroke-width="1.5"/>
<path d="M59.9249 65.7353H3.13295C2.81239 65.7359 2.50517 65.6084 2.27853 65.3817C2.05188 65.1551 1.92435 64.8479 1.92493 64.5273V7.73535" stroke="#B5179E" stroke-width="1.5"/>
<path d="M1.92493 16.5278H6.66316" stroke="#B5179E" stroke-width="1.5"/>
<path d="M1.92493 55.6162H6.66316" stroke="#B5179E" stroke-width="1.5"/>
<path d="M1.92493 45.8223H6.66316" stroke="#B5179E" stroke-width="1.5"/>
<path d="M1.92493 36.0278H6.66316" stroke="#B5179E" stroke-width="1.5"/>
<path d="M1.92493 26.2339H6.66316" stroke="#B5179E" stroke-width="1.5"/>
</g>
<defs>
<clipPath id="clip0_1_692">
<rect width="59" height="72" fill="white" transform="translate(0.924927 0.370117)"/>
</clipPath>
</defs>
</svg>
