<svg width="36" height="49" viewBox="0 0 36 49" fill="none" xmlns="http://www.w3.org/2000/svg">
<g clip-path="url(#clip0_8_2330)">
<g clip-path="url(#clip1_8_2330)">
<path d="M33.8149 50.6977C33.4769 50.6984 33.151 50.5713 32.9027 50.342L29.8009 47.5048L26.7083 50.342C26.4574 50.5664 26.1326 50.6904 25.796 50.6904C25.4594 50.6904 25.1346 50.5664 24.8837 50.342L21.7728 47.5048L18.6802 50.342C18.4293 50.5664 18.1045 50.6904 17.7679 50.6904C17.4313 50.6904 17.1065 50.5664 16.8556 50.342L13.7448 47.5048L10.6521 50.342C10.4012 50.5664 10.0765 50.6904 9.73982 50.6904C9.40322 50.6904 9.07852 50.5664 8.82762 50.342L5.71671 47.5048L2.62408 50.342C2.37412 50.5683 2.04898 50.6936 1.7118 50.6936C1.37462 50.6936 1.04948 50.5683 0.799521 50.342L-3.21451 46.6928C-3.35666 46.5649 -3.47063 46.4089 -3.54916 46.2345C-3.62769 46.0602 -3.66907 45.8714 -3.67065 45.6802V0.0661719C-3.67065 -0.296758 -3.52648 -0.644818 -3.26985 -0.901448C-3.01323 -1.15807 -2.66516 -1.30225 -2.30224 -1.30225H37.8381C38.201 -1.30225 38.5491 -1.15807 38.8057 -0.901448C39.0623 -0.644818 39.2065 -0.296758 39.2065 0.0661719V45.6802C39.2049 45.8714 39.1635 46.0602 39.085 46.2345C39.0065 46.4089 38.8925 46.5649 38.7504 46.6928L34.7272 50.342C34.4788 50.5713 34.153 50.6984 33.8149 50.6977ZM29.8009 44.3118C30.1383 44.3146 30.4629 44.4413 30.7132 44.6676L33.8149 47.5048L36.4697 45.1055V1.43459H-0.933808V45.0781L1.7118 47.5048L4.79531 44.6949C5.0462 44.4705 5.37099 44.3465 5.70759 44.3465C6.04422 44.3465 6.36902 44.4705 6.61992 44.6949L9.73072 47.5048L12.8234 44.6949C13.0742 44.4705 13.399 44.3465 13.7356 44.3465C14.0722 44.3465 14.397 44.4705 14.6479 44.6949L17.7679 47.5048L20.8605 44.6949C21.1114 44.4705 21.4362 44.3465 21.7728 44.3465C22.1094 44.3465 22.4342 44.4705 22.6851 44.6949L25.7869 47.5048L28.8795 44.6949C29.1279 44.4566 29.4567 44.3199 29.8009 44.3118Z" fill="#7209B7"/>
<path d="M19.0723 23.9131H14.1187C13.7557 23.9131 13.4077 23.7689 13.151 23.5123C12.8944 23.2557 12.7502 22.9076 12.7502 22.5447C12.7502 22.1818 12.8944 21.8337 13.151 21.5771C13.4077 21.3204 13.7557 21.1763 14.1187 21.1763H19.0541C19.5422 21.1644 20.0062 20.9621 20.3471 20.6126C20.688 20.2632 20.8788 19.7943 20.8787 19.3061V19.224C20.8671 18.7437 20.6711 18.2863 20.3314 17.9466C19.9918 17.6069 19.5344 17.411 19.0541 17.3994H16.4632C15.2756 17.3466 14.1542 16.8376 13.3325 15.9786C12.5108 15.1195 12.0522 13.9766 12.0522 12.7878C12.0522 11.5991 12.5108 10.4562 13.3325 9.59707C14.1542 8.73797 15.2756 8.22907 16.4632 8.17627H20.5046C20.8676 8.17627 21.2156 8.32037 21.4722 8.57707C21.7289 8.83367 21.873 9.18177 21.873 9.54467C21.873 9.90757 21.7289 10.2557 21.4722 10.5123C21.2156 10.7689 20.8676 10.9131 20.5046 10.9131H16.4632C15.9886 10.9462 15.5442 11.1581 15.2197 11.5061C14.8952 11.854 14.7148 12.3121 14.7148 12.7878C14.7148 13.2636 14.8952 13.7217 15.2197 14.0696C15.5442 14.4175 15.9886 14.6295 16.4632 14.6626H19.0723C20.2777 14.6768 21.4297 15.1619 22.282 16.0143C23.1344 16.8667 23.6195 18.0186 23.6338 19.224V19.3335C23.6243 20.542 23.1412 21.6986 22.2884 22.5549C21.4355 23.4112 20.2808 23.8988 19.0723 23.9131Z" fill="#7209B7"/>
<path d="M17.7677 26.9782C17.4048 26.9782 17.0567 26.8341 16.8001 26.5774C16.5435 26.3208 16.3993 25.9727 16.3993 25.6098V22.5445C16.3993 22.1816 16.5435 21.8336 16.8001 21.5769C17.0567 21.3203 17.4048 21.1761 17.7677 21.1761C18.1307 21.1761 18.4787 21.3203 18.7353 21.5769C18.992 21.8336 19.1361 22.1816 19.1361 22.5445V25.6098C19.1361 25.9727 18.992 26.3208 18.7353 26.5774C18.4787 26.8341 18.1307 26.9782 17.7677 26.9782ZM17.7677 10.84C17.4048 10.84 17.0567 10.6958 16.8001 10.4392C16.5435 10.1826 16.3993 9.83451 16.3993 9.47161V6.45192C16.3993 6.089 16.5435 5.74093 16.8001 5.4843C17.0567 5.22768 17.4048 5.0835 17.7677 5.0835C18.1307 5.0835 18.4787 5.22768 18.7353 5.4843C18.992 5.74093 19.1361 6.089 19.1361 6.45192V9.50811C19.1266 9.86461 18.9783 10.2034 18.7227 10.4522C18.4671 10.701 18.1244 10.8401 17.7677 10.84ZM31.2786 33.3916H29.3081C28.9451 33.3916 28.5971 33.2474 28.3405 32.9908C28.0838 32.7341 27.9397 32.3861 27.9397 32.0231C27.9397 31.6602 28.0838 31.3122 28.3405 31.0555C28.5971 30.7989 28.9451 30.6547 29.3081 30.6547H31.2786C31.6415 30.6547 31.9896 30.7989 32.2462 31.0555C32.5028 31.3122 32.647 31.6602 32.647 32.0231C32.647 32.3861 32.5028 32.7341 32.2462 32.9908C31.9896 33.2474 31.6415 33.3916 31.2786 33.3916ZM24.6372 33.3916H4.25685C3.89392 33.3916 3.54586 33.2474 3.28923 32.9908C3.0326 32.7341 2.88843 32.3861 2.88843 32.0231C2.88843 31.6602 3.0326 31.3122 3.28923 31.0555C3.54586 30.7989 3.89392 30.6547 4.25685 30.6547H24.6372C25.0001 30.6547 25.3482 30.7989 25.6048 31.0555C25.8614 31.3122 26.0056 31.6602 26.0056 32.0231C26.0056 32.3861 25.8614 32.7341 25.6048 32.9908C25.3482 33.2474 25.0001 33.3916 24.6372 33.3916ZM31.2786 39.294H29.3081C28.9451 39.294 28.5971 39.1498 28.3405 38.8932C28.0838 38.6366 27.9397 38.2885 27.9397 37.9256C27.9397 37.5627 28.0838 37.2146 28.3405 36.958C28.5971 36.7013 28.9451 36.5572 29.3081 36.5572H31.2786C31.6415 36.5572 31.9896 36.7013 32.2462 36.958C32.5028 37.2146 32.647 37.5627 32.647 37.9256C32.647 38.2885 32.5028 38.6366 32.2462 38.8932C31.9896 39.1498 31.6415 39.294 31.2786 39.294ZM24.6372 39.294H4.25685C3.89392 39.294 3.54586 39.1498 3.28923 38.8932C3.0326 38.6366 2.88843 38.2885 2.88843 37.9256C2.88843 37.5627 3.0326 37.2146 3.28923 36.958C3.54586 36.7013 3.89392 36.5572 4.25685 36.5572H24.6372C25.0001 36.5572 25.3482 36.7013 25.6048 36.958C25.8614 37.2146 26.0056 37.5627 26.0056 37.9256C26.0056 38.2885 25.8614 38.6366 25.6048 38.8932C25.3482 39.1498 25.0001 39.294 24.6372 39.294Z" fill="#7209B7"/>
</g>
</g>
<defs>
<clipPath id="clip0_8_2330">
<rect width="35.2" height="47.67" fill="white" transform="translate(0.399902 0.689941)"/>
</clipPath>
<clipPath id="clip1_8_2330">
<rect width="44" height="53" fill="white" transform="translate(-4 -1.9751)"/>
</clipPath>
</defs>
</svg>
