<svg width="40" height="41" viewBox="0 0 40 41" fill="none" xmlns="http://www.w3.org/2000/svg">
<g clip-path="url(#clip0_8_2319)">
<g clip-path="url(#clip1_8_2319)">
<path d="M44.0097 35.7015H43.2012V9.4805C43.2012 8.78883 42.9265 8.12547 42.4374 7.63638C41.9483 7.14728 41.2849 6.87251 40.5932 6.87251H33.0561V0.446373C33.0563 0.352543 33.0313 0.260372 32.9835 0.179592C32.9358 0.0988125 32.8672 0.0324024 32.7849 -0.0126376C32.7056 -0.0584176 32.6156 -0.0825195 32.5241 -0.0825195C32.4325 -0.0825195 32.3425 -0.0584176 32.2633 -0.0126376L29.4049 1.87034L26.5569 0.0499525C26.4734 -0.00290649 26.3767 -0.0309705 26.2779 -0.0309705C26.1791 -0.0309705 26.0823 -0.00290649 25.9988 0.0499525L23.1456 1.87034L20.2977 0.0499525C20.2137 -0.00396949 20.1159 -0.0326335 20.016 -0.0326335C19.9162 -0.0326335 19.8184 -0.00396949 19.7344 0.0499525L16.8864 1.87034L14.0385 0.0499525C13.9544 -0.00396949 13.8567 -0.0326335 13.7568 -0.0326335C13.6569 -0.0326335 13.5592 -0.00396949 13.4751 0.0499525L10.6272 1.87034L7.7792 0.00822645C7.7 -0.0375535 7.61 -0.0616555 7.5184 -0.0616555C7.4269 -0.0616555 7.3369 -0.0375535 7.2576 0.00822645C7.1753 0.0532625 7.1067 0.119672 7.059 0.200462C7.0112 0.281242 6.9862 0.373402 6.9864 0.467232V6.87251H-0.56117C-1.25286 6.87251 -1.91622 7.14728 -2.40531 7.63638C-2.89441 8.12547 -3.16918 8.78883 -3.16918 9.4805V35.7015H-3.97767C-4.116 35.7015 -4.24867 35.7564 -4.34649 35.8542C-4.44431 35.9521 -4.49927 36.0847 -4.49927 36.2231V38.3095C-4.49927 39.0012 -4.2245 39.6645 -3.7354 40.1536C-3.2463 40.6427 -2.58294 40.9175 -1.89126 40.9175H41.9233C42.615 40.9175 43.2784 40.6427 43.7675 40.1536C44.2566 39.6645 44.5313 39.0012 44.5313 38.3095V36.2231C44.5313 36.0847 44.4764 35.9521 44.3786 35.8542C44.2807 35.7564 44.1481 35.7015 44.0097 35.7015ZM8.0192 1.41133L10.3455 2.9292C10.4296 2.98312 10.5273 3.01178 10.6272 3.01178C10.7271 3.01178 10.8248 2.98312 10.9089 2.9292L13.7568 1.13488L16.6048 2.95528C16.6888 3.0092 16.7866 3.03786 16.8864 3.03786C16.9863 3.03786 17.084 3.0092 17.1681 2.95528L20.016 1.13488L22.864 2.95528C22.948 3.0092 23.0458 3.03786 23.1456 3.03786C23.2455 3.03786 23.3433 3.0092 23.4273 2.95528L26.2753 1.13488L29.1232 2.95528C29.2078 3.01027 29.3066 3.03955 29.4075 3.03955C29.5084 3.03955 29.6071 3.01027 29.6918 2.95528L32.0129 1.41133V23.3969H8.0192V1.41133ZM7.4976 24.4401H35.1425V25.4833C35.1425 25.6216 35.1974 25.7543 35.2953 25.8521C35.3931 25.9499 35.5258 26.0049 35.6641 26.0049C35.8024 26.0049 35.9351 25.9499 36.0329 25.8521C36.1307 25.7543 36.1857 25.6216 36.1857 25.4833V22.3537C36.1857 22.2153 36.1307 22.0827 36.0329 21.9848C35.9351 21.887 35.8024 21.8321 35.6641 21.8321C35.5258 21.8321 35.3931 21.887 35.2953 21.9848C35.1974 22.0827 35.1425 22.2153 35.1425 22.3537V23.3969H33.0561V11.3568H38.2371C38.3754 11.3568 38.5081 11.4118 38.6059 11.5096C38.7037 11.6074 38.7587 11.7401 38.7587 11.8784V31.7857C38.7587 31.924 38.7037 32.0567 38.6059 32.1545C38.5081 32.2524 38.3754 32.3073 38.2371 32.3073H1.95147C1.77164 32.3073 1.59916 32.2359 1.472 32.1087C1.34483 31.9815 1.27339 31.8091 1.27339 31.6292V11.8628C1.27339 11.7244 1.32835 11.5918 1.42617 11.4939C1.52398 11.3961 1.65666 11.3412 1.79499 11.3412H6.976V23.3812H4.88957V22.338C4.88957 22.1997 4.83462 22.067 4.7368 21.9692C4.63898 21.8714 4.50631 21.8164 4.36797 21.8164C4.22963 21.8164 4.09696 21.8714 3.99914 21.9692C3.90132 22.067 3.84637 22.1997 3.84637 22.338V25.4676C3.84637 25.606 3.90132 25.7386 3.99914 25.8365C4.09696 25.9343 4.22963 25.9892 4.36797 25.9892C4.50631 25.9892 4.63898 25.9343 4.7368 25.8365C4.83462 25.7386 4.88957 25.606 4.88957 25.4676V24.4244L7.4976 24.4401ZM-2.12598 9.4805C-2.12598 9.0655 -1.96111 8.66749 -1.66766 8.37403C-1.3742 8.08058 -0.97618 7.91571 -0.56117 7.91571H6.976V10.2771H1.79499C1.37998 10.2771 0.98197 10.442 0.68851 10.7354C0.395051 11.0289 0.23019 11.4269 0.23019 11.8419V31.6188C0.23019 32.0753 0.411541 32.5131 0.734341 32.8359C1.05715 33.1587 1.49496 33.3401 1.95147 33.3401H38.2371C38.6521 33.3401 39.0501 33.1752 39.3436 32.8818C39.637 32.5883 39.8019 32.1903 39.8019 31.7753V11.868C39.8019 11.453 39.637 11.055 39.3436 10.7615C39.0501 10.468 38.6521 10.3032 38.2371 10.3032H33.0561V7.91571H40.5932C41.0083 7.91571 41.4063 8.08058 41.6997 8.37403C41.9932 8.66749 42.158 9.0655 42.158 9.4805V35.7015H26.2022C26.1213 35.7015 26.0414 35.7203 25.969 35.7565C25.8965 35.7927 25.8335 35.8453 25.785 35.9101L24.7418 37.308H15.2903L14.2471 35.9101C14.1985 35.8453 14.1355 35.7927 14.0631 35.7565C13.9907 35.7203 13.9108 35.7015 13.8298 35.7015H-2.12598V9.4805ZM43.4881 38.3355C43.4881 38.7506 43.3233 39.1486 43.0298 39.442C42.7364 39.7355 42.3383 39.9004 41.9233 39.9004H-1.89126C-2.30627 39.9004 -2.70428 39.7355 -2.99774 39.442C-3.2912 39.1486 -3.45606 38.7506 -3.45606 38.3355V36.7707H13.569L14.6122 38.1686C14.6608 38.2334 14.7238 38.286 14.7962 38.3222C14.8687 38.3584 14.9485 38.3773 15.0295 38.3773H25.0026C25.0835 38.3773 25.1634 38.3584 25.2358 38.3222C25.3082 38.286 25.3712 38.2334 25.4198 38.1686L26.463 36.7707H43.4881V38.3355ZM24.7105 8.95892C24.7105 9.0973 24.6555 9.2299 24.5577 9.3277C24.4599 9.4256 24.3272 9.4805 24.1889 9.4805H9.584C9.4457 9.4805 9.313 9.4256 9.2152 9.3277C9.1173 9.2299 9.0624 9.0973 9.0624 8.95892C9.0624 8.82058 9.1173 8.68791 9.2152 8.59009C9.313 8.49227 9.4457 8.43731 9.584 8.43731H24.1889C24.3272 8.43731 24.4599 8.49227 24.5577 8.59009C24.6555 8.68791 24.7105 8.82058 24.7105 8.95892ZM27.4228 15.6772C27.4228 15.9262 27.5217 16.165 27.6978 16.341C27.8739 16.5171 28.1127 16.616 28.3617 16.616C28.8418 16.614 29.3063 16.7868 29.6684 17.1022C30.0305 17.4176 30.2654 17.854 30.3293 18.3299C30.3932 18.8058 30.2817 19.2887 30.0156 19.6884C29.7495 20.0881 29.347 20.3773 28.8833 20.502V20.6793C28.8833 20.8177 28.8283 20.9503 28.7305 21.0481C28.6327 21.146 28.5 21.2009 28.3617 21.2009C28.2233 21.2009 28.0907 21.146 27.9928 21.0481C27.895 20.9503 27.8401 20.8177 27.8401 20.6793V20.502C27.4224 20.3872 27.0537 20.139 26.7901 19.7954C26.5264 19.4517 26.3823 19.0313 26.3796 18.5981C26.3796 18.4598 26.4345 18.3271 26.5324 18.2293C26.6302 18.1315 26.7628 18.0765 26.9012 18.0765C27.0395 18.0765 27.1722 18.1315 27.27 18.2293C27.3678 18.3271 27.4228 18.4598 27.4228 18.5981C27.4228 18.7838 27.4779 18.9653 27.581 19.1197C27.6842 19.2741 27.8308 19.3945 28.0024 19.4655C28.1739 19.5366 28.3627 19.5552 28.5448 19.519C28.727 19.4827 28.8943 19.3933 29.0256 19.262C29.1569 19.1307 29.2463 18.9634 29.2825 18.7813C29.3187 18.5992 29.3001 18.4104 29.2291 18.2388C29.158 18.0673 29.0377 17.9206 28.8833 17.8175C28.7289 17.7143 28.5474 17.6592 28.3617 17.6592C27.8848 17.6567 27.425 17.4818 27.0669 17.1669C26.7088 16.8521 26.4766 16.4183 26.413 15.9457C26.3495 15.4731 26.459 14.9935 26.7212 14.5952C26.9835 14.197 27.3808 13.9069 27.8401 13.7785V13.596C27.8401 13.4576 27.895 13.3249 27.9928 13.2271C28.0907 13.1293 28.2233 13.0744 28.3617 13.0744C28.5 13.0744 28.6327 13.1293 28.7305 13.2271C28.8283 13.3249 28.8833 13.4576 28.8833 13.596V13.7785C29.3009 13.8915 29.67 14.1385 29.9338 14.4814C30.1976 14.8244 30.3417 15.2445 30.3438 15.6772C30.3438 15.8155 30.2888 15.9482 30.191 16.046C30.0932 16.1438 29.9605 16.1988 29.8222 16.1988C29.6838 16.1988 29.5511 16.1438 29.4533 16.046C29.3555 15.9482 29.3006 15.8155 29.3006 15.6772C29.3006 15.4281 29.2016 15.1893 29.0256 15.0133C28.8495 14.8372 28.6107 14.7383 28.3617 14.7383C28.1127 14.7383 27.8739 14.8372 27.6978 15.0133C27.5217 15.1893 27.4228 15.4281 27.4228 15.6772ZM27.4228 6.80992C27.4228 7.05892 27.5217 7.29773 27.6978 7.47381C27.8739 7.64988 28.1127 7.7488 28.3617 7.7488C28.8418 7.74677 29.3063 7.91959 29.6684 8.23497C30.0305 8.55036 30.2654 8.98675 30.3293 9.4627C30.3932 9.9386 30.2817 10.4215 30.0156 10.8212C29.7495 11.2209 29.347 11.5101 28.8833 11.6347V11.8121C28.8833 11.9504 28.8283 12.0831 28.7305 12.1809C28.6327 12.2787 28.5 12.3337 28.3617 12.3337C28.2233 12.3337 28.0907 12.2787 27.9928 12.1809C27.895 12.0831 27.8401 11.9504 27.8401 11.8121V11.6347C27.4224 11.5199 27.0537 11.2718 26.7901 10.9281C26.5264 10.5844 26.3823 10.164 26.3796 9.7309C26.3796 9.5926 26.4345 9.4599 26.5324 9.3621C26.6302 9.2642 26.7628 9.2093 26.9012 9.2093C27.0395 9.2093 27.1722 9.2642 27.27 9.3621C27.3678 9.4599 27.4228 9.5926 27.4228 9.7309C27.4228 9.9166 27.4779 10.0981 27.581 10.2525C27.6842 10.4069 27.8308 10.5272 28.0024 10.5983C28.1739 10.6694 28.3627 10.688 28.5448 10.6517C28.727 10.6155 28.8943 10.5261 29.0256 10.3948C29.1569 10.2635 29.2463 10.0962 29.2825 9.9141C29.3187 9.7319 29.3001 9.5432 29.2291 9.3716C29.158 9.2 29.0377 9.0534 28.8833 8.95023C28.7289 8.84707 28.5474 8.792 28.3617 8.792C27.8848 8.78944 27.425 8.6146 27.0669 8.29971C26.7088 7.98482 26.4766 7.5511 26.413 7.0785C26.3495 6.6059 26.459 6.12626 26.7212 5.72799C26.9835 5.32973 27.3808 5.03967 27.8401 4.91128V4.72872C27.8401 4.59039 27.895 4.45771 27.9928 4.3599C28.0907 4.26208 28.2233 4.20712 28.3617 4.20712C28.5 4.20712 28.6327 4.26208 28.7305 4.3599C28.8283 4.45771 28.8833 4.59039 28.8833 4.72872V4.91128C29.3009 5.02431 29.67 5.27124 29.9338 5.61421C30.1976 5.95717 30.3417 6.37722 30.3438 6.80992C30.3438 6.94825 30.2888 7.08093 30.191 7.17874C30.0932 7.27656 29.9605 7.33152 29.8222 7.33152C29.6838 7.33152 29.5511 7.27656 29.4533 7.17874C29.3555 7.08093 29.3006 6.94825 29.3006 6.80992C29.3006 6.56091 29.2016 6.3221 29.0256 6.14602C28.8495 5.96995 28.6107 5.87103 28.3617 5.87103C28.1127 5.87103 27.8739 5.96995 27.6978 6.14602C27.5217 6.3221 27.4228 6.56091 27.4228 6.80992ZM24.7105 17.3046C24.7105 17.4429 24.6555 17.5756 24.5577 17.6734C24.4599 17.7712 24.3272 17.8262 24.1889 17.8262H9.584C9.4457 17.8262 9.313 17.7712 9.2152 17.6734C9.1173 17.5756 9.0624 17.4429 9.0624 17.3046C9.0624 17.1662 9.1173 17.0335 9.2152 16.9357C9.313 16.8379 9.4457 16.783 9.584 16.783H24.1889C24.3272 16.783 24.4599 16.8379 24.5577 16.9357C24.6555 17.0335 24.7105 17.1662 24.7105 17.3046ZM24.7105 13.1317C24.7105 13.2701 24.6555 13.4027 24.5577 13.5006C24.4599 13.5984 24.3272 13.6533 24.1889 13.6533H9.584C9.4457 13.6533 9.313 13.5984 9.2152 13.5006C9.1173 13.4027 9.0624 13.2701 9.0624 13.1317C9.0624 12.9934 9.1173 12.8607 9.2152 12.7629C9.313 12.6651 9.4457 12.6101 9.584 12.6101H24.1889C24.3272 12.6101 24.4599 12.6651 24.5577 12.7629C24.6555 12.8607 24.7105 12.9934 24.7105 13.1317ZM9.1928 26.6934C9.1928 26.5551 9.2477 26.4224 9.3456 26.3246C9.4434 26.2267 9.5761 26.1718 9.7144 26.1718H25.6233C25.7616 26.1718 25.8943 26.2267 25.9921 26.3246C26.0899 26.4224 26.1449 26.5551 26.1449 26.6934C26.1449 26.8317 26.0899 26.9644 25.9921 27.0622C25.8943 27.16 25.7616 27.215 25.6233 27.215H9.7144C9.5761 27.215 9.4434 27.16 9.3456 27.0622C9.2477 26.9644 9.1928 26.8317 9.1928 26.6934ZM27.1881 26.6934C27.1881 26.5551 27.243 26.4224 27.3408 26.3246C27.4387 26.2267 27.5713 26.1718 27.7097 26.1718H30.3177C30.456 26.1718 30.5887 26.2267 30.6865 26.3246C30.7843 26.4224 30.8393 26.5551 30.8393 26.6934C30.8393 26.8317 30.7843 26.9644 30.6865 27.0622C30.5887 27.16 30.456 27.215 30.3177 27.215H27.7097C27.5713 27.215 27.4387 27.16 27.3408 27.0622C27.243 26.9644 27.1881 26.8317 27.1881 26.6934Z" fill="#7209B7"/>
<mask id="mask0_8_2319" style="mask-type:luminance" maskUnits="userSpaceOnUse" x="-6" y="-2" width="52" height="44">
<path d="M45.5007 -1.08252H-5.49927V41.9175H45.5007V-1.08252Z" fill="white"/>
<path d="M44.0097 35.7015H43.2012V9.4805C43.2012 8.78883 42.9265 8.12547 42.4374 7.63638C41.9483 7.14728 41.2849 6.87251 40.5932 6.87251H33.0561V0.446373C33.0563 0.352543 33.0313 0.260372 32.9835 0.179592C32.9358 0.0988125 32.8672 0.0324024 32.7849 -0.0126376C32.7056 -0.0584176 32.6156 -0.0825195 32.5241 -0.0825195C32.4325 -0.0825195 32.3425 -0.0584176 32.2633 -0.0126376L29.4049 1.87034L26.5569 0.0499525C26.4734 -0.00290649 26.3767 -0.0309705 26.2779 -0.0309705C26.1791 -0.0309705 26.0823 -0.00290649 25.9988 0.0499525L23.1456 1.87034L20.2977 0.0499525C20.2137 -0.00396949 20.1159 -0.0326335 20.016 -0.0326335C19.9162 -0.0326335 19.8184 -0.00396949 19.7344 0.0499525L16.8864 1.87034L14.0385 0.0499525C13.9544 -0.00396949 13.8567 -0.0326335 13.7568 -0.0326335C13.6569 -0.0326335 13.5592 -0.00396949 13.4751 0.0499525L10.6272 1.87034L7.7792 0.00822645C7.7 -0.0375535 7.61 -0.0616555 7.5184 -0.0616555C7.4269 -0.0616555 7.3369 -0.0375535 7.2576 0.00822645C7.1753 0.0532625 7.1067 0.119672 7.059 0.200462C7.0112 0.281242 6.9862 0.373402 6.9864 0.467232V6.87251H-0.56117C-1.25286 6.87251 -1.91622 7.14728 -2.40531 7.63638C-2.89441 8.12547 -3.16918 8.78883 -3.16918 9.4805V35.7015H-3.97767C-4.116 35.7015 -4.24867 35.7564 -4.34649 35.8542C-4.44431 35.9521 -4.49927 36.0847 -4.49927 36.2231V38.3095C-4.49927 39.0012 -4.2245 39.6645 -3.7354 40.1536C-3.2463 40.6427 -2.58294 40.9175 -1.89126 40.9175H41.9233C42.615 40.9175 43.2784 40.6427 43.7675 40.1536C44.2566 39.6645 44.5313 39.0012 44.5313 38.3095V36.2231C44.5313 36.0847 44.4764 35.9521 44.3786 35.8542C44.2807 35.7564 44.1481 35.7015 44.0097 35.7015ZM8.0192 1.41133L10.3455 2.9292C10.4296 2.98312 10.5273 3.01178 10.6272 3.01178C10.7271 3.01178 10.8248 2.98312 10.9089 2.9292L13.7568 1.13488L16.6048 2.95528C16.6888 3.0092 16.7866 3.03786 16.8864 3.03786C16.9863 3.03786 17.084 3.0092 17.1681 2.95528L20.016 1.13488L22.864 2.95528C22.948 3.0092 23.0458 3.03786 23.1456 3.03786C23.2455 3.03786 23.3433 3.0092 23.4273 2.95528L26.2753 1.13488L29.1232 2.95528C29.2078 3.01027 29.3066 3.03955 29.4075 3.03955C29.5084 3.03955 29.6071 3.01027 29.6918 2.95528L32.0129 1.41133V23.3969H8.0192V1.41133ZM7.4976 24.4401H35.1425V25.4833C35.1425 25.6216 35.1974 25.7543 35.2953 25.8521C35.3931 25.9499 35.5258 26.0049 35.6641 26.0049C35.8024 26.0049 35.9351 25.9499 36.0329 25.8521C36.1307 25.7543 36.1857 25.6216 36.1857 25.4833V22.3537C36.1857 22.2153 36.1307 22.0827 36.0329 21.9848C35.9351 21.887 35.8024 21.8321 35.6641 21.8321C35.5258 21.8321 35.3931 21.887 35.2953 21.9848C35.1974 22.0827 35.1425 22.2153 35.1425 22.3537V23.3969H33.0561V11.3568H38.2371C38.3754 11.3568 38.5081 11.4118 38.6059 11.5096C38.7037 11.6074 38.7587 11.7401 38.7587 11.8784V31.7857C38.7587 31.924 38.7037 32.0567 38.6059 32.1545C38.5081 32.2524 38.3754 32.3073 38.2371 32.3073H1.95147C1.77164 32.3073 1.59916 32.2359 1.472 32.1087C1.34483 31.9815 1.27339 31.8091 1.27339 31.6292V11.8628C1.27339 11.7244 1.32835 11.5918 1.42617 11.4939C1.52398 11.3961 1.65666 11.3412 1.79499 11.3412H6.976V23.3812H4.88957V22.338C4.88957 22.1997 4.83462 22.067 4.7368 21.9692C4.63898 21.8714 4.50631 21.8164 4.36797 21.8164C4.22963 21.8164 4.09696 21.8714 3.99914 21.9692C3.90132 22.067 3.84637 22.1997 3.84637 22.338V25.4676C3.84637 25.606 3.90132 25.7386 3.99914 25.8365C4.09696 25.9343 4.22963 25.9892 4.36797 25.9892C4.50631 25.9892 4.63898 25.9343 4.7368 25.8365C4.83462 25.7386 4.88957 25.606 4.88957 25.4676V24.4244L7.4976 24.4401ZM-2.12598 9.4805C-2.12598 9.0655 -1.96111 8.66749 -1.66766 8.37403C-1.3742 8.08058 -0.97618 7.91571 -0.56117 7.91571H6.976V10.2771H1.79499C1.37998 10.2771 0.98197 10.442 0.68851 10.7354C0.395051 11.0289 0.23019 11.4269 0.23019 11.8419V31.6188C0.23019 32.0753 0.411541 32.5131 0.734341 32.8359C1.05715 33.1587 1.49496 33.3401 1.95147 33.3401H38.2371C38.6521 33.3401 39.0501 33.1752 39.3436 32.8818C39.637 32.5883 39.8019 32.1903 39.8019 31.7753V11.868C39.8019 11.453 39.637 11.055 39.3436 10.7615C39.0501 10.468 38.6521 10.3032 38.2371 10.3032H33.0561V7.91571H40.5932C41.0083 7.91571 41.4063 8.08058 41.6997 8.37403C41.9932 8.66749 42.158 9.0655 42.158 9.4805V35.7015H26.2022C26.1213 35.7015 26.0414 35.7203 25.969 35.7565C25.8965 35.7927 25.8335 35.8453 25.785 35.9101L24.7418 37.308H15.2903L14.2471 35.9101C14.1985 35.8453 14.1355 35.7927 14.0631 35.7565C13.9907 35.7203 13.9108 35.7015 13.8298 35.7015H-2.12598V9.4805ZM43.4881 38.3355C43.4881 38.7506 43.3233 39.1486 43.0298 39.442C42.7364 39.7355 42.3383 39.9004 41.9233 39.9004H-1.89126C-2.30627 39.9004 -2.70428 39.7355 -2.99774 39.442C-3.2912 39.1486 -3.45606 38.7506 -3.45606 38.3355V36.7707H13.569L14.6122 38.1686C14.6608 38.2334 14.7238 38.286 14.7962 38.3222C14.8687 38.3584 14.9485 38.3773 15.0295 38.3773H25.0026C25.0835 38.3773 25.1634 38.3584 25.2358 38.3222C25.3082 38.286 25.3712 38.2334 25.4198 38.1686L26.463 36.7707H43.4881V38.3355ZM24.7105 8.95892C24.7105 9.0973 24.6555 9.2299 24.5577 9.3277C24.4599 9.4256 24.3272 9.4805 24.1889 9.4805H9.584C9.4457 9.4805 9.313 9.4256 9.2152 9.3277C9.1173 9.2299 9.0624 9.0973 9.0624 8.95892C9.0624 8.82058 9.1173 8.68791 9.2152 8.59009C9.313 8.49227 9.4457 8.43731 9.584 8.43731H24.1889C24.3272 8.43731 24.4599 8.49227 24.5577 8.59009C24.6555 8.68791 24.7105 8.82058 24.7105 8.95892ZM27.4228 15.6772C27.4228 15.9262 27.5217 16.165 27.6978 16.341C27.8739 16.5171 28.1127 16.616 28.3617 16.616C28.8418 16.614 29.3063 16.7868 29.6684 17.1022C30.0305 17.4176 30.2654 17.854 30.3293 18.3299C30.3932 18.8058 30.2817 19.2887 30.0156 19.6884C29.7495 20.0881 29.347 20.3773 28.8833 20.502V20.6793C28.8833 20.8177 28.8283 20.9503 28.7305 21.0481C28.6327 21.146 28.5 21.2009 28.3617 21.2009C28.2233 21.2009 28.0907 21.146 27.9928 21.0481C27.895 20.9503 27.8401 20.8177 27.8401 20.6793V20.502C27.4224 20.3872 27.0537 20.139 26.7901 19.7954C26.5264 19.4517 26.3823 19.0313 26.3796 18.5981C26.3796 18.4598 26.4345 18.3271 26.5324 18.2293C26.6302 18.1315 26.7628 18.0765 26.9012 18.0765C27.0395 18.0765 27.1722 18.1315 27.27 18.2293C27.3678 18.3271 27.4228 18.4598 27.4228 18.5981C27.4228 18.7838 27.4779 18.9653 27.581 19.1197C27.6842 19.2741 27.8308 19.3945 28.0024 19.4655C28.1739 19.5366 28.3627 19.5552 28.5448 19.519C28.727 19.4827 28.8943 19.3933 29.0256 19.262C29.1569 19.1307 29.2463 18.9634 29.2825 18.7813C29.3187 18.5992 29.3001 18.4104 29.2291 18.2388C29.158 18.0673 29.0377 17.9206 28.8833 17.8175C28.7289 17.7143 28.5474 17.6592 28.3617 17.6592C27.8848 17.6567 27.425 17.4818 27.0669 17.1669C26.7088 16.8521 26.4766 16.4183 26.413 15.9457C26.3495 15.4731 26.459 14.9935 26.7212 14.5952C26.9835 14.197 27.3808 13.9069 27.8401 13.7785V13.596C27.8401 13.4576 27.895 13.3249 27.9928 13.2271C28.0907 13.1293 28.2233 13.0744 28.3617 13.0744C28.5 13.0744 28.6327 13.1293 28.7305 13.2271C28.8283 13.3249 28.8833 13.4576 28.8833 13.596V13.7785C29.3009 13.8915 29.67 14.1385 29.9338 14.4814C30.1976 14.8244 30.3417 15.2445 30.3438 15.6772C30.3438 15.8155 30.2888 15.9482 30.191 16.046C30.0932 16.1438 29.9605 16.1988 29.8222 16.1988C29.6838 16.1988 29.5511 16.1438 29.4533 16.046C29.3555 15.9482 29.3006 15.8155 29.3006 15.6772C29.3006 15.4281 29.2016 15.1893 29.0256 15.0133C28.8495 14.8372 28.6107 14.7383 28.3617 14.7383C28.1127 14.7383 27.8739 14.8372 27.6978 15.0133C27.5217 15.1893 27.4228 15.4281 27.4228 15.6772ZM27.4228 6.80992C27.4228 7.05892 27.5217 7.29773 27.6978 7.47381C27.8739 7.64988 28.1127 7.7488 28.3617 7.7488C28.8418 7.74677 29.3063 7.91959 29.6684 8.23497C30.0305 8.55036 30.2654 8.98675 30.3293 9.4627C30.3932 9.9386 30.2817 10.4215 30.0156 10.8212C29.7495 11.2209 29.347 11.5101 28.8833 11.6347V11.8121C28.8833 11.9504 28.8283 12.0831 28.7305 12.1809C28.6327 12.2787 28.5 12.3337 28.3617 12.3337C28.2233 12.3337 28.0907 12.2787 27.9928 12.1809C27.895 12.0831 27.8401 11.9504 27.8401 11.8121V11.6347C27.4224 11.5199 27.0537 11.2718 26.7901 10.9281C26.5264 10.5844 26.3823 10.164 26.3796 9.7309C26.3796 9.5926 26.4345 9.4599 26.5324 9.3621C26.6302 9.2642 26.7628 9.2093 26.9012 9.2093C27.0395 9.2093 27.1722 9.2642 27.27 9.3621C27.3678 9.4599 27.4228 9.5926 27.4228 9.7309C27.4228 9.9166 27.4779 10.0981 27.581 10.2525C27.6842 10.4069 27.8308 10.5272 28.0024 10.5983C28.1739 10.6694 28.3627 10.688 28.5448 10.6517C28.727 10.6155 28.8943 10.5261 29.0256 10.3948C29.1569 10.2635 29.2463 10.0962 29.2825 9.9141C29.3187 9.7319 29.3001 9.5432 29.2291 9.3716C29.158 9.2 29.0377 9.0534 28.8833 8.95023C28.7289 8.84707 28.5474 8.792 28.3617 8.792C27.8848 8.78944 27.425 8.6146 27.0669 8.29971C26.7088 7.98482 26.4766 7.5511 26.413 7.0785C26.3495 6.6059 26.459 6.12626 26.7212 5.72799C26.9835 5.32973 27.3808 5.03967 27.8401 4.91128V4.72872C27.8401 4.59039 27.895 4.45771 27.9928 4.3599C28.0907 4.26208 28.2233 4.20712 28.3617 4.20712C28.5 4.20712 28.6327 4.26208 28.7305 4.3599C28.8283 4.45771 28.8833 4.59039 28.8833 4.72872V4.91128C29.3009 5.02431 29.67 5.27124 29.9338 5.61421C30.1976 5.95717 30.3417 6.37722 30.3438 6.80992C30.3438 6.94825 30.2888 7.08093 30.191 7.17874C30.0932 7.27656 29.9605 7.33152 29.8222 7.33152C29.6838 7.33152 29.5511 7.27656 29.4533 7.17874C29.3555 7.08093 29.3006 6.94825 29.3006 6.80992C29.3006 6.56091 29.2016 6.3221 29.0256 6.14602C28.8495 5.96995 28.6107 5.87103 28.3617 5.87103C28.1127 5.87103 27.8739 5.96995 27.6978 6.14602C27.5217 6.3221 27.4228 6.56091 27.4228 6.80992ZM24.7105 17.3046C24.7105 17.4429 24.6555 17.5756 24.5577 17.6734C24.4599 17.7712 24.3272 17.8262 24.1889 17.8262H9.584C9.4457 17.8262 9.313 17.7712 9.2152 17.6734C9.1173 17.5756 9.0624 17.4429 9.0624 17.3046C9.0624 17.1662 9.1173 17.0335 9.2152 16.9357C9.313 16.8379 9.4457 16.783 9.584 16.783H24.1889C24.3272 16.783 24.4599 16.8379 24.5577 16.9357C24.6555 17.0335 24.7105 17.1662 24.7105 17.3046ZM24.7105 13.1317C24.7105 13.2701 24.6555 13.4027 24.5577 13.5006C24.4599 13.5984 24.3272 13.6533 24.1889 13.6533H9.584C9.4457 13.6533 9.313 13.5984 9.2152 13.5006C9.1173 13.4027 9.0624 13.2701 9.0624 13.1317C9.0624 12.9934 9.1173 12.8607 9.2152 12.7629C9.313 12.6651 9.4457 12.6101 9.584 12.6101H24.1889C24.3272 12.6101 24.4599 12.6651 24.5577 12.7629C24.6555 12.8607 24.7105 12.9934 24.7105 13.1317ZM9.1928 26.6934C9.1928 26.5551 9.2477 26.4224 9.3456 26.3246C9.4434 26.2267 9.5761 26.1718 9.7144 26.1718H25.6233C25.7616 26.1718 25.8943 26.2267 25.9921 26.3246C26.0899 26.4224 26.1449 26.5551 26.1449 26.6934C26.1449 26.8317 26.0899 26.9644 25.9921 27.0622C25.8943 27.16 25.7616 27.215 25.6233 27.215H9.7144C9.5761 27.215 9.4434 27.16 9.3456 27.0622C9.2477 26.9644 9.1928 26.8317 9.1928 26.6934ZM27.1881 26.6934C27.1881 26.5551 27.243 26.4224 27.3408 26.3246C27.4387 26.2267 27.5713 26.1718 27.7097 26.1718H30.3177C30.456 26.1718 30.5887 26.2267 30.6865 26.3246C30.7843 26.4224 30.8393 26.5551 30.8393 26.6934C30.8393 26.8317 30.7843 26.9644 30.6865 27.0622C30.5887 27.16 30.456 27.215 30.3177 27.215H27.7097C27.5713 27.215 27.4387 27.16 27.3408 27.0622C27.243 26.9644 27.1881 26.8317 27.1881 26.6934Z" fill="black"/>
</mask>
<g mask="url(#mask0_8_2319)">
<path d="M44.0097 35.7015H43.2012V9.4805C43.2012 8.78883 42.9265 8.12547 42.4374 7.63638C41.9483 7.14728 41.2849 6.87251 40.5932 6.87251H33.0561V0.446373C33.0563 0.352543 33.0313 0.260372 32.9835 0.179592C32.9358 0.0988125 32.8672 0.0324024 32.7849 -0.0126376C32.7056 -0.0584176 32.6156 -0.0825195 32.5241 -0.0825195C32.4325 -0.0825195 32.3425 -0.0584176 32.2633 -0.0126376L29.4049 1.87034L26.5569 0.0499525C26.4734 -0.00290649 26.3767 -0.0309705 26.2779 -0.0309705C26.1791 -0.0309705 26.0823 -0.00290649 25.9988 0.0499525L23.1456 1.87034L20.2977 0.0499525C20.2137 -0.00396949 20.1159 -0.0326335 20.016 -0.0326335C19.9162 -0.0326335 19.8184 -0.00396949 19.7344 0.0499525L16.8864 1.87034L14.0385 0.0499525C13.9544 -0.00396949 13.8567 -0.0326335 13.7568 -0.0326335C13.6569 -0.0326335 13.5592 -0.00396949 13.4751 0.0499525L10.6272 1.87034L7.7792 0.00822645C7.7 -0.0375535 7.61 -0.0616555 7.5184 -0.0616555C7.4269 -0.0616555 7.3369 -0.0375535 7.2576 0.00822645C7.1753 0.0532625 7.1067 0.119672 7.059 0.200462C7.0112 0.281242 6.9862 0.373402 6.9864 0.467232V6.87251H-0.56117C-1.25286 6.87251 -1.91622 7.14728 -2.40531 7.63638C-2.89441 8.12547 -3.16918 8.78883 -3.16918 9.4805V35.7015H-3.97767C-4.116 35.7015 -4.24867 35.7564 -4.34649 35.8542C-4.44431 35.9521 -4.49927 36.0847 -4.49927 36.2231V38.3095C-4.49927 39.0012 -4.2245 39.6645 -3.7354 40.1536C-3.2463 40.6427 -2.58294 40.9175 -1.89126 40.9175H41.9233C42.615 40.9175 43.2784 40.6427 43.7675 40.1536C44.2566 39.6645 44.5313 39.0012 44.5313 38.3095V36.2231C44.5313 36.0847 44.4764 35.9521 44.3786 35.8542C44.2807 35.7564 44.1481 35.7015 44.0097 35.7015ZM8.0192 1.41133L10.3455 2.9292C10.4296 2.98312 10.5273 3.01178 10.6272 3.01178C10.7271 3.01178 10.8248 2.98312 10.9089 2.9292L13.7568 1.13488L16.6048 2.95528C16.6888 3.0092 16.7866 3.03786 16.8864 3.03786C16.9863 3.03786 17.084 3.0092 17.1681 2.95528L20.016 1.13488L22.864 2.95528C22.948 3.0092 23.0458 3.03786 23.1456 3.03786C23.2455 3.03786 23.3433 3.0092 23.4273 2.95528L26.2753 1.13488L29.1232 2.95528C29.2078 3.01027 29.3066 3.03955 29.4075 3.03955C29.5084 3.03955 29.6071 3.01027 29.6918 2.95528L32.0129 1.41133V23.3969H8.0192V1.41133ZM7.4976 24.4401H35.1425V25.4833C35.1425 25.6216 35.1974 25.7543 35.2953 25.8521C35.3931 25.9499 35.5258 26.0049 35.6641 26.0049C35.8024 26.0049 35.9351 25.9499 36.0329 25.8521C36.1307 25.7543 36.1857 25.6216 36.1857 25.4833V22.3537C36.1857 22.2153 36.1307 22.0827 36.0329 21.9848C35.9351 21.887 35.8024 21.8321 35.6641 21.8321C35.5258 21.8321 35.3931 21.887 35.2953 21.9848C35.1974 22.0827 35.1425 22.2153 35.1425 22.3537V23.3969H33.0561V11.3568H38.2371C38.3754 11.3568 38.5081 11.4118 38.6059 11.5096C38.7037 11.6074 38.7587 11.7401 38.7587 11.8784V31.7857C38.7587 31.924 38.7037 32.0567 38.6059 32.1545C38.5081 32.2524 38.3754 32.3073 38.2371 32.3073H1.95147C1.77164 32.3073 1.59916 32.2359 1.472 32.1087C1.34483 31.9815 1.27339 31.8091 1.27339 31.6292V11.8628C1.27339 11.7244 1.32835 11.5918 1.42617 11.4939C1.52398 11.3961 1.65666 11.3412 1.79499 11.3412H6.976V23.3812H4.88957V22.338C4.88957 22.1997 4.83462 22.067 4.7368 21.9692C4.63898 21.8714 4.50631 21.8164 4.36797 21.8164C4.22963 21.8164 4.09696 21.8714 3.99914 21.9692C3.90132 22.067 3.84637 22.1997 3.84637 22.338V25.4676C3.84637 25.606 3.90132 25.7386 3.99914 25.8365C4.09696 25.9343 4.22963 25.9892 4.36797 25.9892C4.50631 25.9892 4.63898 25.9343 4.7368 25.8365C4.83462 25.7386 4.88957 25.606 4.88957 25.4676V24.4244L7.4976 24.4401ZM-2.12598 9.4805C-2.12598 9.0655 -1.96111 8.66749 -1.66766 8.37403C-1.3742 8.08058 -0.97618 7.91571 -0.56117 7.91571H6.976V10.2771H1.79499C1.37998 10.2771 0.98197 10.442 0.68851 10.7354C0.39505 11.0289 0.23019 11.4269 0.23019 11.8419V31.6188C0.23019 32.0753 0.411541 32.5131 0.734341 32.8359C1.05715 33.1587 1.49496 33.3401 1.95147 33.3401H38.2371C38.6521 33.3401 39.0501 33.1752 39.3436 32.8818C39.637 32.5883 39.8019 32.1903 39.8019 31.7753V11.868C39.8019 11.453 39.637 11.055 39.3436 10.7615C39.0501 10.468 38.6521 10.3032 38.2371 10.3032H33.0561V7.91571H40.5932C41.0083 7.91571 41.4063 8.08058 41.6997 8.37403C41.9932 8.66749 42.158 9.0655 42.158 9.4805V35.7015H26.2022C26.1213 35.7015 26.0414 35.7203 25.969 35.7565C25.8965 35.7927 25.8335 35.8453 25.785 35.9101L24.7418 37.308H15.2903L14.2471 35.9101C14.1985 35.8453 14.1355 35.7927 14.0631 35.7565C13.9907 35.7203 13.9108 35.7015 13.8298 35.7015H-2.12598V9.4805ZM43.4881 38.3355C43.4881 38.7506 43.3233 39.1486 43.0298 39.442C42.7364 39.7355 42.3383 39.9004 41.9233 39.9004H-1.89126C-2.30627 39.9004 -2.70428 39.7355 -2.99774 39.442C-3.2912 39.1486 -3.45606 38.7506 -3.45606 38.3355V36.7707H13.569L14.6122 38.1686C14.6608 38.2334 14.7238 38.286 14.7962 38.3222C14.8687 38.3584 14.9485 38.3773 15.0295 38.3773H25.0026C25.0835 38.3773 25.1634 38.3584 25.2358 38.3222C25.3082 38.286 25.3712 38.2334 25.4198 38.1686L26.463 36.7707H43.4881V38.3355ZM24.7105 8.95892C24.7105 9.0973 24.6555 9.2299 24.5577 9.3277C24.4599 9.4256 24.3272 9.4805 24.1889 9.4805H9.584C9.4457 9.4805 9.313 9.4256 9.2152 9.3277C9.1173 9.2299 9.0624 9.0973 9.0624 8.95892C9.0624 8.82058 9.1173 8.68791 9.2152 8.59009C9.313 8.49227 9.4457 8.43731 9.584 8.43731H24.1889C24.3272 8.43731 24.4599 8.49227 24.5577 8.59009C24.6555 8.68791 24.7105 8.82058 24.7105 8.95892ZM27.4228 15.6772C27.4228 15.9262 27.5217 16.165 27.6978 16.341C27.8739 16.5171 28.1127 16.616 28.3617 16.616C28.8418 16.614 29.3063 16.7868 29.6684 17.1022C30.0305 17.4176 30.2654 17.854 30.3293 18.3299C30.3932 18.8058 30.2817 19.2887 30.0156 19.6884C29.7495 20.0881 29.347 20.3773 28.8833 20.502V20.6793C28.8833 20.8177 28.8283 20.9503 28.7305 21.0481C28.6327 21.146 28.5 21.2009 28.3617 21.2009C28.2233 21.2009 28.0907 21.146 27.9928 21.0481C27.895 20.9503 27.8401 20.8177 27.8401 20.6793V20.502C27.4224 20.3872 27.0537 20.139 26.7901 19.7954C26.5264 19.4517 26.3823 19.0313 26.3796 18.5981C26.3796 18.4598 26.4345 18.3271 26.5324 18.2293C26.6302 18.1315 26.7628 18.0765 26.9012 18.0765C27.0395 18.0765 27.1722 18.1315 27.27 18.2293C27.3678 18.3271 27.4228 18.4598 27.4228 18.5981C27.4228 18.7838 27.4779 18.9653 27.581 19.1197C27.6842 19.2741 27.8308 19.3945 28.0024 19.4655C28.1739 19.5366 28.3627 19.5552 28.5448 19.519C28.727 19.4827 28.8943 19.3933 29.0256 19.262C29.1569 19.1307 29.2463 18.9634 29.2825 18.7813C29.3187 18.5992 29.3001 18.4104 29.2291 18.2388C29.158 18.0673 29.0377 17.9206 28.8833 17.8175C28.7289 17.7143 28.5474 17.6592 28.3617 17.6592C27.8848 17.6567 27.425 17.4818 27.0669 17.1669C26.7088 16.8521 26.4766 16.4183 26.413 15.9457C26.3495 15.4731 26.459 14.9935 26.7212 14.5952C26.9835 14.197 27.3808 13.9069 27.8401 13.7785V13.596C27.8401 13.4576 27.895 13.3249 27.9928 13.2271C28.0907 13.1293 28.2233 13.0744 28.3617 13.0744C28.5 13.0744 28.6327 13.1293 28.7305 13.2271C28.8283 13.3249 28.8833 13.4576 28.8833 13.596V13.7785C29.3009 13.8915 29.67 14.1385 29.9338 14.4814C30.1976 14.8244 30.3417 15.2445 30.3438 15.6772C30.3438 15.8155 30.2888 15.9482 30.191 16.046C30.0932 16.1438 29.9605 16.1988 29.8222 16.1988C29.6838 16.1988 29.5511 16.1438 29.4533 16.046C29.3555 15.9482 29.3006 15.8155 29.3006 15.6772C29.3006 15.4281 29.2016 15.1893 29.0256 15.0133C28.8495 14.8372 28.6107 14.7383 28.3617 14.7383C28.1127 14.7383 27.8739 14.8372 27.6978 15.0133C27.5217 15.1893 27.4228 15.4281 27.4228 15.6772ZM27.4228 6.80992C27.4228 7.05892 27.5217 7.29773 27.6978 7.47381C27.8739 7.64988 28.1127 7.7488 28.3617 7.7488C28.8418 7.74677 29.3063 7.91959 29.6684 8.23497C30.0305 8.55036 30.2654 8.98675 30.3293 9.4627C30.3932 9.9386 30.2817 10.4215 30.0156 10.8212C29.7495 11.2209 29.347 11.5101 28.8833 11.6347V11.8121C28.8833 11.9504 28.8283 12.0831 28.7305 12.1809C28.6327 12.2787 28.5 12.3337 28.3617 12.3337C28.2233 12.3337 28.0907 12.2787 27.9928 12.1809C27.895 12.0831 27.8401 11.9504 27.8401 11.8121V11.6347C27.4224 11.5199 27.0537 11.2718 26.7901 10.9281C26.5264 10.5844 26.3823 10.164 26.3796 9.7309C26.3796 9.5926 26.4345 9.4599 26.5324 9.3621C26.6302 9.2642 26.7628 9.2093 26.9012 9.2093C27.0395 9.2093 27.1722 9.2642 27.27 9.3621C27.3678 9.4599 27.4228 9.5926 27.4228 9.7309C27.4228 9.9166 27.4779 10.0981 27.581 10.2525C27.6842 10.4069 27.8308 10.5272 28.0024 10.5983C28.1739 10.6694 28.3627 10.688 28.5448 10.6517C28.727 10.6155 28.8943 10.5261 29.0256 10.3948C29.1569 10.2635 29.2463 10.0962 29.2825 9.9141C29.3187 9.7319 29.3001 9.5432 29.2291 9.3716C29.158 9.2 29.0377 9.0534 28.8833 8.95023C28.7289 8.84707 28.5474 8.792 28.3617 8.792C27.8848 8.78944 27.425 8.6146 27.0669 8.29971C26.7088 7.98482 26.4766 7.5511 26.413 7.0785C26.3495 6.6059 26.459 6.12626 26.7212 5.72799C26.9835 5.32973 27.3808 5.03967 27.8401 4.91128V4.72872C27.8401 4.59039 27.895 4.45771 27.9928 4.3599C28.0907 4.26208 28.2233 4.20712 28.3617 4.20712C28.5 4.20712 28.6327 4.26208 28.7305 4.3599C28.8283 4.45771 28.8833 4.59039 28.8833 4.72872V4.91128C29.3009 5.02431 29.67 5.27124 29.9338 5.61421C30.1976 5.95717 30.3417 6.37722 30.3438 6.80992C30.3438 6.94825 30.2888 7.08093 30.191 7.17874C30.0932 7.27656 29.9605 7.33152 29.8222 7.33152C29.6838 7.33152 29.5511 7.27656 29.4533 7.17874C29.3555 7.08093 29.3006 6.94825 29.3006 6.80992C29.3006 6.56091 29.2016 6.3221 29.0256 6.14602C28.8495 5.96995 28.6107 5.87103 28.3617 5.87103C28.1127 5.87103 27.8739 5.96995 27.6978 6.14602C27.5217 6.3221 27.4228 6.56091 27.4228 6.80992ZM24.7105 17.3046C24.7105 17.4429 24.6555 17.5756 24.5577 17.6734C24.4599 17.7712 24.3272 17.8262 24.1889 17.8262H9.584C9.4457 17.8262 9.313 17.7712 9.2152 17.6734C9.1173 17.5756 9.0624 17.4429 9.0624 17.3046C9.0624 17.1662 9.1173 17.0335 9.2152 16.9357C9.313 16.8379 9.4457 16.783 9.584 16.783H24.1889C24.3272 16.783 24.4599 16.8379 24.5577 16.9357C24.6555 17.0335 24.7105 17.1662 24.7105 17.3046ZM24.7105 13.1317C24.7105 13.2701 24.6555 13.4027 24.5577 13.5006C24.4599 13.5984 24.3272 13.6533 24.1889 13.6533H9.584C9.4457 13.6533 9.313 13.5984 9.2152 13.5006C9.1173 13.4027 9.0624 13.2701 9.0624 13.1317C9.0624 12.9934 9.1173 12.8607 9.2152 12.7629C9.313 12.6651 9.4457 12.6101 9.584 12.6101H24.1889C24.3272 12.6101 24.4599 12.6651 24.5577 12.7629C24.6555 12.8607 24.7105 12.9934 24.7105 13.1317ZM9.1928 26.6934C9.1928 26.5551 9.2477 26.4224 9.3456 26.3246C9.4434 26.2267 9.5761 26.1718 9.7144 26.1718H25.6233C25.7616 26.1718 25.8943 26.2267 25.9921 26.3246C26.0899 26.4224 26.1449 26.5551 26.1449 26.6934C26.1449 26.8317 26.0899 26.9644 25.9921 27.0622C25.8943 27.16 25.7616 27.215 25.6233 27.215H9.7144C9.5761 27.215 9.4434 27.16 9.3456 27.0622C9.2477 26.9644 9.1928 26.8317 9.1928 26.6934ZM27.1881 26.6934C27.1881 26.5551 27.243 26.4224 27.3408 26.3246C27.4387 26.2267 27.5713 26.1718 27.7097 26.1718H30.3177C30.456 26.1718 30.5887 26.2267 30.6865 26.3246C30.7843 26.4224 30.8393 26.5551 30.8393 26.6934C30.8393 26.8317 30.7843 26.9644 30.6865 27.0622C30.5887 27.16 30.456 27.215 30.3177 27.215H27.7097C27.5713 27.215 27.4387 27.16 27.3408 27.0622C27.243 26.9644 27.1881 26.8317 27.1881 26.6934Z" stroke="#7209B7" stroke-width="0.8"/>
</g>
</g>
</g>
<defs>
<clipPath id="clip0_8_2319">
<rect width="40" height="39.67" fill="white" transform="translate(0 0.689941)"/>
</clipPath>
<clipPath id="clip1_8_2319">
<rect width="50" height="43" fill="white" transform="translate(-5 -0.975098)"/>
</clipPath>
</defs>
</svg>
