<svg width="173" height="100" viewBox="0 0 173 100" fill="none" xmlns="http://www.w3.org/2000/svg">
<g clip-path="url(#clip0_1_1022)">
<rect x="111" y="34" width="32" height="32" rx="16" stroke="white" stroke-width="8"/>
<path fill-rule="evenodd" clip-rule="evenodd" d="M126 49V56L139 64.6667V64.7059L146.997 69.9979L147 70V63V50H139V57.6667L126 49Z" fill="white"/>
<path d="M3.47656 70V30H19.2578C22.2786 30 24.8568 30.5404 26.9922 31.6211C29.1406 32.6888 30.7747 34.2057 31.8945 36.1719C33.0273 38.125 33.5938 40.4232 33.5938 43.0664C33.5938 45.7227 33.0208 48.0078 31.875 49.9219C30.7292 51.8229 29.069 53.2812 26.8945 54.2969C24.7331 55.3125 22.1159 55.8203 19.043 55.8203H8.47656V49.0234H17.6758C19.2904 49.0234 20.6315 48.8021 21.6992 48.3594C22.7669 47.9167 23.5612 47.2526 24.082 46.3672C24.6159 45.4818 24.8828 44.3815 24.8828 43.0664C24.8828 41.7383 24.6159 40.6185 24.082 39.707C23.5612 38.7956 22.7604 38.1055 21.6797 37.6367C20.612 37.1549 19.2643 36.9141 17.6367 36.9141H11.9336V70H3.47656ZM25.0781 51.7969L35.0195 70H25.6836L15.957 51.7969H25.0781ZM52.6025 70.5859C49.5166 70.5859 46.8604 69.9609 44.6338 68.7109C42.4202 67.4479 40.7145 65.6641 39.5166 63.3594C38.3187 61.0417 37.7197 58.3008 37.7197 55.1367C37.7197 52.0508 38.3187 49.3424 39.5166 47.0117C40.7145 44.681 42.4007 42.8646 44.5752 41.5625C46.7627 40.2604 49.3278 39.6094 52.2705 39.6094C54.2497 39.6094 56.0921 39.9284 57.7979 40.5664C59.5166 41.1914 61.014 42.1354 62.29 43.3984C63.5791 44.6615 64.5817 46.25 65.2979 48.1641C66.014 50.0651 66.3721 52.2917 66.3721 54.8437V57.1289H41.04V51.9727H58.54C58.54 50.7747 58.2796 49.7135 57.7588 48.7891C57.238 47.8646 56.5153 47.1419 55.5908 46.6211C54.6794 46.0872 53.6182 45.8203 52.4072 45.8203C51.1442 45.8203 50.0244 46.1133 49.0479 46.6992C48.0843 47.2721 47.3291 48.0469 46.7822 49.0234C46.2354 49.987 45.9554 51.0612 45.9424 52.2461V57.1484C45.9424 58.6328 46.2158 59.9154 46.7627 60.9961C47.3226 62.0768 48.1104 62.9102 49.126 63.4961C50.1416 64.082 51.346 64.375 52.7393 64.375C53.6637 64.375 54.5101 64.2448 55.2783 63.9844C56.0466 63.724 56.7041 63.3333 57.251 62.8125C57.7979 62.2917 58.2145 61.6536 58.501 60.8984L66.1963 61.4062C65.8057 63.2552 65.0049 64.8698 63.7939 66.25C62.596 67.6172 61.0465 68.6849 59.1455 69.4531C57.2575 70.2083 55.0765 70.5859 52.6025 70.5859ZM98.9648 40L88.4766 70H79.1016L68.6133 40H77.4023L83.6328 61.4648H83.9453L90.1563 40H98.9648Z" fill="white"/>
</g>
<defs>
<clipPath id="clip0_1_1022">
<rect width="147" height="40" fill="white" transform="translate(0 30)"/>
</clipPath>
</defs>
</svg>
