<svg width="85" height="105" viewBox="0 0 85 105" fill="none" xmlns="http://www.w3.org/2000/svg">
<g clip-path="url(#clip0_1_864)">
<g clip-path="url(#clip1_1_864)">
<path d="M77.9648 42.1337H21.5898V32.9755C21.5898 22.2904 29.2773 12.6233 40.0398 11.6057C50.8023 10.588 60.0273 17.7117 62.0773 27.8878C62.5899 30.4318 64.6398 31.9579 67.2023 31.9579C70.2775 31.9579 72.84 28.9049 72.3273 25.8519C69.2521 10.5877 54.9025 -0.606045 37.9898 1.42918C22.6155 3.46422 11.3398 17.7113 11.3398 32.9751V42.1333H6.21484C3.13966 42.1333 1.08984 44.1683 1.08984 47.2213V98.1019C1.08984 100.646 3.13966 103.19 6.21484 103.19H77.9648C80.5273 103.19 83.0898 100.646 83.0898 98.1019V47.2213C83.0898 44.1683 80.5273 42.1337 77.9648 42.1337ZM47.2148 76.2237V82.8378C47.2148 85.3818 44.6523 87.9258 42.0898 87.9258C39.0146 87.9258 36.9648 85.3818 36.9648 82.8378V76.2237C33.8896 74.6975 31.8398 71.1356 31.8398 67.5736C31.8398 61.9765 36.4521 57.3975 42.0898 57.3975C47.7275 57.3975 52.3398 61.9765 52.3398 67.5736C52.3398 71.1356 50.29 74.6967 47.2148 76.2237Z" stroke="#EA5DD5" stroke-width="1.5" stroke-linejoin="round"/>
</g>
</g>
<defs>
<clipPath id="clip0_1_864">
<rect width="84" height="104" fill="white" transform="translate(0.0898438 0.190002)"/>
</clipPath>
<clipPath id="clip1_1_864">
<rect width="84" height="104" fill="white" transform="translate(0.0898438 0.190002)"/>
</clipPath>
</defs>
</svg>
